<svg width="427" height="427" viewBox="0 0 427 427" fill="none" xmlns="http://www.w3.org/2000/svg">
<path d="M247.404 352.133C248.258 352.133 249.112 352.048 249.795 351.962C253.126 351.45 256.542 352.133 259.872 352.304C261.495 352.389 263.117 352.133 264.74 352.048C266.021 351.962 267.217 352.048 268.327 351.194C268.925 350.681 269.352 349.827 269.095 349.144C268.754 348.034 267.473 347.692 266.363 347.436C263.715 346.924 260.982 346.326 258.335 345.814C257.225 345.557 255.175 345.13 254.919 343.764C254.834 343.081 255.175 342.056 255.261 341.373C255.346 340.519 255.431 339.665 255.431 338.811C255.517 337.274 256.029 335.736 254.065 335.651C252.015 335.566 249.88 335.395 247.831 335.309C247.66 335.309 247.404 335.309 247.233 335.395C246.891 335.566 246.806 335.907 246.721 336.249C246.464 337.359 246.123 338.555 245.867 339.665C245.44 341.458 245.013 343.252 244.671 345.045C244.5 346.326 244.5 347.607 244.329 348.973C244.244 349.742 244.073 350.596 244.586 351.194C245.183 351.877 246.294 352.048 247.404 352.133Z" fill="black"/>
<path d="M262.947 359.136C263.032 359.648 263.288 360.075 263.715 360.332C264.569 360.759 265.936 360.673 266.875 360.844C268.412 361.1 269.949 361.271 271.401 361.1C272.511 361.015 273.622 360.759 274.817 360.673C278.062 360.502 281.308 361.783 284.553 360.844C285.663 360.502 287.542 359.819 287.883 358.538C288.31 356.916 286.859 355.805 285.492 355.464C283.699 354.951 281.905 354.781 280.112 354.695C279.343 354.695 278.66 354.695 277.892 354.524C276.098 354.097 275.33 352.646 275.757 350.938C276.269 348.632 276.867 346.411 277.379 344.106C273.622 343.593 269.864 344.191 266.106 344.874C265.85 344.874 265.594 344.96 265.509 345.13C265.423 345.301 265.338 345.472 265.338 345.643C264.74 348.119 265.082 350.425 264.228 352.816C263.715 353.927 262.605 357.257 262.947 359.136Z" fill="black"/>
<path d="M159.186 217.287C159.869 217.03 160.637 216.945 161.406 216.774C162.858 216.433 163.626 215.749 164.651 214.81C165.249 214.212 165.932 213.529 166.786 213.187C169.434 212.077 170.715 214.298 169.775 216.603C169.007 218.397 167.811 220.19 166.103 221.044C164.139 221.984 162.175 222.069 160.467 223.435C160.04 223.777 155.428 227.62 155.599 227.876C154.745 226.766 152.866 224.46 152.951 223.008C154.232 222.667 155.086 221.727 155.855 220.617C156.538 219.507 157.221 218.397 158.332 217.714C158.588 217.543 158.844 217.372 159.186 217.287Z" fill="white"/>
<path d="M155.086 228.218L154.916 228.047C153.549 226.339 152.183 224.375 152.268 223.008V222.581L152.61 222.496C153.549 222.24 154.403 221.557 155.172 220.361L155.513 219.849C156.111 218.909 156.794 217.884 157.819 217.201C158.075 217.03 158.417 216.86 158.844 216.689C159.356 216.518 159.954 216.347 160.467 216.262C160.637 216.176 160.894 216.176 161.064 216.091C162.26 215.835 163.029 215.237 164.053 214.212C164.737 213.529 165.42 212.846 166.359 212.504C167.64 211.906 168.836 212.077 169.604 212.846C170.458 213.7 170.629 215.237 170.031 216.603C169.348 218.226 168.067 220.276 166.018 221.386C165.164 221.813 164.395 222.069 163.626 222.325C162.516 222.667 161.406 223.008 160.467 223.777C159.869 224.289 156.111 227.449 155.77 227.962L155.343 227.705L155.086 228.218ZM153.464 223.35C153.635 224.375 154.745 225.912 155.513 226.937C156.794 225.485 159.954 223.008 160.04 222.923C161.15 221.984 162.345 221.642 163.541 221.3C164.31 221.044 165.078 220.788 165.761 220.446C167.469 219.592 168.58 217.714 169.177 216.262C169.604 215.322 169.519 214.298 169.007 213.7C168.58 213.273 167.811 213.187 166.957 213.614C166.274 213.956 165.676 214.468 165.078 215.066C164.053 216.006 163.114 216.86 161.491 217.201C161.235 217.287 161.064 217.287 160.808 217.372C160.296 217.457 159.783 217.628 159.271 217.799C158.929 217.884 158.673 218.055 158.502 218.141C157.648 218.653 157.136 219.507 156.538 220.446L156.197 220.959C155.684 221.813 154.83 222.838 153.464 223.35Z" fill="black"/>
<path d="M120.243 276.213H118.279V320.023H120.243V276.213Z" fill="#110809"/>
<path d="M137.323 329.246H135.017C135.017 327.88 134.505 326.599 133.395 325.488C130.406 322.499 124.086 321.133 119.048 321.133C119.048 321.133 119.048 321.133 118.962 321.133C113.24 321.133 102.907 323.866 102.907 329.161H100.601C100.601 321.902 112.557 318.827 118.877 318.827C118.877 318.827 118.877 318.827 118.962 318.827C124.001 318.827 131.174 320.108 134.932 323.78C136.555 325.403 137.323 327.196 137.323 329.246Z" fill="#110809"/>
<path d="M120.414 320.194H118.108V330.954H120.414V320.194Z" fill="#110809"/>
<path d="M139.031 330.783C139.031 332.32 137.75 333.601 136.213 333.601C134.676 333.601 133.395 332.32 133.395 330.783C133.395 329.246 134.676 327.965 136.213 327.965C137.75 327.965 139.031 329.246 139.031 330.783Z" fill="#110809"/>
<path d="M121.951 330.783C121.951 332.32 120.67 333.601 119.133 333.601C117.596 333.601 116.315 332.32 116.315 330.783C116.315 329.246 117.596 327.965 119.133 327.965C120.67 327.965 121.951 329.246 121.951 330.783Z" fill="#110809"/>
<path d="M104.957 330.783C104.957 332.32 103.676 333.601 102.138 333.601C100.601 333.601 99.3202 332.32 99.3202 330.783C99.3202 329.246 100.601 327.965 102.138 327.965C103.676 327.965 104.957 329.246 104.957 330.783Z" fill="#110809"/>
<path d="M117.34 261.524V229.243C117.34 223.692 112.813 219.165 107.262 219.165H96.1604C90.6094 219.165 86.0832 223.692 86.0832 229.243V265.281C86.0832 273.224 92.5736 279.799 100.601 279.799H117.254H136.896C137.836 279.799 138.604 279.031 138.604 278.091C138.604 277.152 137.836 276.383 136.896 276.383H132.37C124.001 276.383 117.34 269.722 117.34 261.524Z" fill="white"/>
<path d="M136.725 280.312H100.43C92.1466 280.312 85.4 273.565 85.4 265.281V229.243C85.4 223.35 90.1824 218.568 96.075 218.568H107.177C113.07 218.568 117.852 223.35 117.852 229.243V261.524C117.852 269.381 124.257 275.871 132.199 275.871H136.725C138.006 275.871 139.031 276.896 139.031 278.177C139.031 279.372 138.006 280.312 136.725 280.312ZM96.075 219.678C90.7802 219.678 86.5102 223.948 86.5102 229.243V265.281C86.5102 272.967 92.7444 279.202 100.43 279.202H136.725C137.323 279.202 137.836 278.689 137.836 278.091C137.836 277.494 137.323 276.981 136.725 276.981H132.199C123.659 276.981 116.742 270.064 116.742 261.524V229.243C116.742 223.948 112.472 219.678 107.177 219.678H96.075Z" fill="black"/>
<path d="M187.624 321.816C187.88 322.329 188.136 322.756 188.478 323.183C189.503 324.634 191.723 325.915 193.516 325.659C195.481 325.403 197.359 324.72 199.324 324.805C200.007 324.805 200.775 324.976 201.288 325.488C203.594 327.709 198.128 329.673 196.676 330.1C193.26 331.125 189.93 332.15 186.514 333.174C185.916 333.345 185.233 333.516 184.549 333.431C183.183 333.26 182.585 332.32 182.158 331.125C181.646 329.673 181.048 328.221 180.536 326.769C179.596 324.378 178.828 321.987 178.315 319.51C178.144 318.827 178.059 318.059 178.23 317.375C178.486 316.351 179.596 315.497 180.621 315.497C181.048 315.497 181.56 315.667 181.987 315.753C185.147 316.863 186.172 319.083 187.624 321.816Z" fill="white"/>
<path d="M185.062 334.114C184.891 334.114 184.72 334.114 184.549 334.028C182.756 333.772 182.073 332.491 181.731 331.381C181.304 330.015 180.792 328.819 180.279 327.453L180.109 327.026C179.169 324.634 178.401 322.158 177.803 319.681C177.632 318.913 177.461 318.059 177.717 317.29C178.059 316.009 179.34 315.07 180.621 315.07C181.133 315.07 181.731 315.24 182.158 315.411C185.233 316.351 186.343 318.486 187.709 320.877L188.136 321.56C188.478 322.158 188.734 322.585 188.99 322.926C189.844 324.207 191.894 325.318 193.431 325.147C194.114 325.061 194.797 324.891 195.481 324.805C196.762 324.549 198.043 324.293 199.409 324.293C200.434 324.378 201.202 324.634 201.8 325.147C202.569 325.915 202.569 326.599 202.483 327.111C201.971 329.161 197.786 330.527 196.932 330.783L186.77 333.858C186.257 333.943 185.66 334.114 185.062 334.114ZM180.706 316.18C179.938 316.18 179.084 316.863 178.913 317.632C178.742 318.144 178.828 318.827 178.998 319.425C179.511 321.902 180.279 324.293 181.219 326.599L181.39 327.026C181.902 328.392 182.414 329.673 182.927 331.039C183.354 332.235 183.866 332.833 184.806 332.918C185.318 333.004 186.001 332.833 186.514 332.662L196.676 329.588C198.811 328.99 201.202 327.709 201.459 326.769C201.459 326.599 201.544 326.342 201.117 325.915C200.775 325.574 200.263 325.403 199.494 325.403C198.299 325.318 197.103 325.574 195.908 325.83C195.224 326.001 194.541 326.086 193.773 326.257C191.723 326.513 189.332 325.147 188.222 323.524C187.965 323.097 187.624 322.67 187.282 322.072L186.855 321.389C185.574 318.998 184.549 317.29 181.987 316.436C181.475 316.265 181.048 316.18 180.706 316.18Z" fill="black"/>
<path d="M168.409 269.978C168.494 267.758 168.153 265.452 167.384 263.403C166.188 260.072 163.626 257.254 160.296 256.058C158.417 255.375 156.367 255.375 154.403 255.29C145.863 254.948 137.238 254.692 128.698 254.35C121.268 254.094 112.643 260.157 112.813 268.356C112.984 273.394 116.4 278.689 121.866 278.86C121.951 278.86 122.122 278.86 122.207 278.86C130.32 278.945 138.519 278.945 146.632 279.031C152.354 279.031 159.783 281.422 164.993 278.262C165.676 277.835 166.359 277.323 166.872 276.554C167.469 275.7 167.726 274.761 167.896 273.821C168.238 272.54 168.409 271.259 168.409 269.978Z" fill="black"/>
<path d="M134.932 267.16C142.789 271.43 128.271 278.775 120.756 278.775H107.604C100.003 278.775 94.1108 274.932 93.8546 267.416V244.7L122.976 244.785C122.976 244.871 126.392 262.549 134.932 267.16Z" fill="black"/>
<path d="M163.456 270.662C157.307 266.562 132.626 260.584 129.296 259.303C122.634 256.656 115.29 255.546 108.202 256.485C102.138 257.254 95.8188 258.279 94.367 265.111C93.0006 271.174 96.8436 277.237 102.992 278.604C103.163 278.604 103.249 278.689 103.419 278.689L160.125 289.877C160.21 289.877 160.381 289.962 160.467 289.962C160.808 290.047 161.064 290.047 161.406 290.133C165.847 290.645 169.434 288.083 170.458 283.557C171.398 278.689 168.58 274.163 163.456 270.662Z" fill="black"/>
<path d="M155.77 324.549C155.77 326.257 156.026 327.709 157.563 329.161C159.783 331.296 163.199 331.552 165.591 333.516C165.847 333.687 166.018 333.858 166.103 334.114C166.359 334.626 166.103 335.224 165.676 335.566C163.541 337.53 158.759 335.566 156.282 335.139C153.208 334.626 150.133 334.028 147.059 333.516C146.205 333.345 145.692 332.577 145.863 331.723L147.657 322.926L147.913 321.645C148.34 319.51 150.475 318.059 152.61 318.571C154.489 318.998 155.77 320.706 155.77 322.67C155.77 323.353 155.77 323.951 155.77 324.549Z" fill="white"/>
<path d="M163.029 337.017C161.491 337.017 159.698 336.59 158.161 336.163C157.478 335.993 156.794 335.822 156.282 335.736L147.059 334.114C146.546 334.028 146.034 333.687 145.692 333.26C145.351 332.833 145.265 332.235 145.351 331.723L147.4 321.645C147.657 320.45 148.34 319.425 149.365 318.742C150.389 318.059 151.585 317.888 152.781 318.144C154.83 318.571 156.367 320.535 156.367 322.756V323.524C156.367 323.866 156.367 324.207 156.367 324.549C156.367 326.257 156.624 327.538 157.99 328.734C159.1 329.758 160.552 330.356 162.004 330.954C163.37 331.466 164.822 332.064 166.018 333.004C166.274 333.174 166.53 333.431 166.701 333.858C167.042 334.626 166.701 335.48 166.188 335.993C165.334 336.761 164.224 337.017 163.029 337.017ZM151.841 319.083C151.158 319.083 150.56 319.254 150.048 319.596C149.279 320.108 148.767 320.877 148.596 321.731L148.34 323.012L146.546 331.808C146.461 332.064 146.546 332.32 146.717 332.491C146.888 332.662 147.059 332.833 147.315 332.918L156.538 334.541C157.136 334.626 157.734 334.797 158.502 334.968C160.808 335.566 164.053 336.42 165.42 335.053C165.676 334.797 165.761 334.455 165.676 334.199C165.591 334.028 165.42 333.943 165.334 333.772C164.31 332.918 163.029 332.406 161.662 331.893C160.125 331.296 158.502 330.612 157.221 329.417C155.428 327.709 155.257 325.915 155.257 324.378C155.257 324.037 155.257 323.695 155.257 323.353V322.585C155.257 320.877 154.147 319.425 152.61 319.083C152.268 319.083 152.097 319.083 151.841 319.083Z" fill="black"/>
<path d="M124.257 212.419C124.001 211.138 123.745 209.857 123.488 208.576C124.428 214.127 125.282 219.592 126.136 225.143C126.904 230.353 127.417 235.648 129.125 240.686C129.637 242.394 130.491 245.383 132.455 246.066C134.932 246.92 136.555 246.579 138.946 246.579C139.971 246.579 141.081 246.579 142.106 246.323C144.924 245.554 146.803 242.821 147.998 240.174C149.365 237.185 150.816 235.221 153.464 233.342C155.343 231.975 157.136 230.524 158.844 228.986C159.442 228.389 161.064 227.449 161.321 226.595C161.662 225.741 161.15 225.4 160.467 224.716C158.417 222.581 156.111 220.703 154.232 218.482C152.268 220.276 150.389 222.069 148.425 223.777C147.059 225.058 145.692 226.339 144.326 227.535C143.643 228.132 140.056 230.609 140.141 231.207C139.8 226.851 139.373 222.496 137.921 218.482C137.75 218.055 137.579 217.543 137.494 217.03C137.409 216.347 137.579 215.749 137.75 215.066C138.433 211.65 137.921 208.063 136.469 204.904C134.932 201.573 132.968 199.694 129.466 198.584C127.417 197.901 125.282 197.218 123.147 196.876C122.805 196.791 122.293 196.876 122.207 197.218C122.207 197.388 122.207 197.474 122.293 197.645L124.257 212.419ZM125.794 217.97C125.88 217.97 126.05 217.97 126.136 217.884L125.794 217.97ZM125.453 217.97H125.538H125.453Z" fill="white"/>
<path d="M136.128 247.262C134.932 247.262 133.822 247.177 132.37 246.664C130.32 245.896 129.381 243.163 128.869 241.284L128.783 240.942C127.417 236.843 126.819 232.573 126.221 228.389C126.05 227.364 125.965 226.339 125.794 225.314C124.94 219.849 124.086 214.298 123.147 208.747L124.257 208.576L125.026 212.419H124.94C125.623 216.689 126.307 220.959 126.99 225.143C127.161 226.168 127.331 227.193 127.417 228.218C128.015 232.317 128.612 236.587 129.979 240.601L130.064 241.028C130.577 242.65 131.345 245.127 132.882 245.725C134.59 246.323 135.871 246.323 137.494 246.237C138.006 246.237 138.604 246.237 139.202 246.237C140.227 246.237 141.252 246.237 142.191 245.981C144.326 245.383 146.205 243.504 147.742 240.088C149.023 237.27 150.475 235.135 153.378 233C155.172 231.634 156.965 230.182 158.673 228.73C158.844 228.559 159.1 228.389 159.356 228.132C159.954 227.705 160.808 227.022 160.979 226.595C161.15 226.168 161.064 226.083 160.552 225.656L160.296 225.4C159.527 224.631 158.673 223.777 157.819 223.008C156.624 221.898 155.428 220.788 154.318 219.592L144.838 228.303C144.582 228.474 144.155 228.816 143.557 229.243C142.703 229.84 140.91 231.207 140.739 231.634C140.739 231.634 140.739 231.548 140.739 231.463L139.629 231.548C139.287 227.364 138.86 222.923 137.409 218.909L137.323 218.738C137.152 218.311 136.982 217.799 136.896 217.287C136.811 216.603 136.982 216.006 137.067 215.408L137.152 215.152C137.836 211.906 137.323 208.405 135.871 205.331C134.334 202.085 132.455 200.377 129.21 199.353C127.161 198.669 125.111 197.986 122.976 197.73C122.891 197.73 122.805 197.73 122.72 197.73L122.207 197.901L121.695 197.986C121.61 197.815 121.61 197.559 121.61 197.303C121.78 196.705 122.378 196.364 123.147 196.534C125.367 196.876 127.502 197.559 129.552 198.242C133.053 199.438 135.188 201.317 136.896 204.818C138.433 208.149 138.946 211.906 138.263 215.322L138.177 215.579C138.092 216.091 137.921 216.603 138.006 217.116C138.006 217.457 138.177 217.884 138.348 218.311L138.433 218.482C139.8 222.24 140.227 226.168 140.568 230.011C141.081 229.584 141.764 228.986 142.789 228.303C143.301 227.962 143.814 227.535 143.984 227.364L154.318 217.799L154.659 218.226C155.855 219.592 157.136 220.788 158.417 222.069C159.271 222.838 160.04 223.606 160.894 224.46L161.15 224.716C161.662 225.229 162.26 225.827 161.833 226.937C161.577 227.62 160.637 228.389 159.869 228.986C159.613 229.157 159.356 229.328 159.186 229.499C157.478 231.036 155.684 232.488 153.805 233.854C151.414 235.648 150.048 237.356 148.511 240.515C146.803 244.188 144.753 246.323 142.191 247.006C141.081 247.262 139.971 247.262 138.86 247.262C138.263 247.262 137.75 247.262 137.152 247.262C136.896 247.262 136.469 247.262 136.128 247.262ZM125.88 218.482L125.709 217.372L126.05 217.287L126.221 218.397L125.88 218.482Z" fill="black"/>
<path d="M188.563 319.596C183.61 309.262 180.023 298.417 176.18 287.656C174.301 282.447 172.423 277.152 169.007 272.797C167.469 270.747 166.018 269.21 163.37 268.612C161.064 268.1 158.588 268.356 156.282 268.868C155.001 269.124 153.805 269.808 152.524 270.149C150.816 270.576 148.169 270.149 147.486 272.284C147.144 273.224 147.315 274.334 147.571 275.273C147.913 276.896 148.511 278.518 149.108 280.056C149.962 282.02 150.987 283.984 151.67 286.034C152.183 287.571 152.524 289.193 153.122 290.731C154.147 293.207 155.855 295.342 158.075 296.879C159.356 297.819 160.894 298.587 161.833 299.868C162.516 300.808 162.602 301.833 162.943 302.857C163.968 305.59 165.164 308.579 167.64 310.116C168.323 310.543 169.007 310.885 169.519 311.483C169.861 311.91 170.031 312.422 170.202 312.935C170.715 314.472 171.312 315.924 172.337 317.205C173.191 318.315 174.387 319.169 175.326 320.279C176.266 321.475 176.522 322.841 177.205 324.122C177.376 324.549 188.563 319.681 188.563 319.596Z" fill="black"/>
<path d="M113.582 197.132C112.13 197.303 110.593 197.474 109.141 197.559C104.444 198.072 99.491 198.669 95.8188 201.573C91.4634 205.074 88.816 211.394 89.7554 216.945C90.2678 220.019 91.2072 223.008 91.5488 226.083C92.659 236.331 93.4276 246.664 93.94 256.998C98.8932 256.741 103.932 256.741 108.885 256.485C115.034 256.144 121.866 255.887 127.758 253.667C128.442 245.127 130.747 236.758 130.662 228.218C130.577 224.033 130.491 219.849 130.491 215.664" fill="white"/>
<path d="M93.4276 257.595V256.998C92.9152 246.75 92.1466 236.331 91.0364 226.168C90.8656 224.375 90.4386 222.581 90.0116 220.873C89.7554 219.678 89.4138 218.397 89.243 217.116C88.3036 211.479 90.8656 204.989 95.5626 201.231C99.491 198.072 104.871 197.474 109.227 197.047L113.667 196.62L113.753 197.73L109.312 198.157C105.127 198.584 99.918 199.096 96.2458 202.085C91.8904 205.587 89.4992 211.65 90.3532 216.945C90.524 218.226 90.8656 219.422 91.1218 220.703C91.5488 222.496 91.9758 224.289 92.1466 226.168C93.2568 236.245 94.0254 246.408 94.5378 256.571C96.6728 256.485 98.8078 256.4 100.943 256.314C103.59 256.229 106.323 256.144 108.97 256.058H109.739C115.461 255.802 121.866 255.46 127.331 253.411C127.588 250.08 128.1 246.75 128.612 243.59C129.381 238.637 130.235 233.513 130.15 228.389L129.979 215.835H131.089L131.26 228.389C131.345 233.598 130.491 238.722 129.723 243.761C129.21 247.091 128.698 250.507 128.356 253.923V254.265L128.015 254.35C122.293 256.485 115.632 256.827 109.739 257.168H108.97C106.323 257.339 103.59 257.425 100.943 257.425C98.637 257.51 96.3312 257.595 94.0254 257.681L93.4276 257.595Z" fill="black"/>
<path d="M167.128 297.05C167.213 296.794 167.384 296.538 167.469 296.282C167.726 295.769 167.896 295.257 167.982 294.744C169.604 288.596 171.739 282.02 171.056 275.444C170.458 269.722 170.544 262.378 164.907 258.876C160.296 255.973 153.805 254.094 149.792 258.876C148.938 259.901 148.34 261.097 147.998 262.378C145.522 271.345 149.621 279.031 148.511 287.4C148.254 289.535 147.913 291.67 148.34 293.72C148.511 294.403 148.681 295.086 148.767 295.769C149.023 297.477 148.425 299.185 147.998 300.893C147.486 302.687 147.144 304.48 147.23 306.359C147.315 308.238 147.913 310.116 147.913 311.995C147.913 313.362 147.657 314.728 147.4 316.094C147.059 317.888 145.351 321.389 147.571 322.072C148.938 322.499 150.56 322.414 152.012 322.841C152.524 322.926 156.026 323.866 157.819 324.464C158.332 324.634 158.929 324.293 158.929 323.695C159.271 321.218 160.467 318.571 161.064 316.265C161.918 313.191 162.772 310.031 163.456 306.957C163.797 305.419 164.139 303.968 164.651 302.516C165.334 300.552 166.274 298.844 167.128 297.05Z" fill="black"/>
<path d="M125.111 185.262L123.318 174.587L116.4 176.209C112.045 177.234 109.312 181.589 110.337 185.945L110.935 188.592C111.191 189.617 111.618 190.556 112.301 191.41L110.935 197.901C110.251 200.975 112.216 203.964 115.29 204.477C118.364 204.989 121.268 202.939 121.695 199.78L122.805 192.35C124.769 190.642 125.709 187.994 125.111 185.262Z" fill="white"/>
<path d="M116.315 205.074C115.973 205.074 115.546 205.074 115.205 204.989C113.582 204.733 112.13 203.793 111.276 202.342C110.337 200.975 110.081 199.267 110.422 197.645L111.789 191.41C111.191 190.556 110.764 189.617 110.508 188.592L109.91 185.945C109.397 183.724 109.739 181.333 111.02 179.369C112.216 177.405 114.18 176.038 116.4 175.526L123.83 173.818L125.709 185.091C126.307 187.824 125.453 190.642 123.403 192.606L122.378 199.78C122.122 201.402 121.268 202.854 119.987 203.879C118.791 204.733 117.51 205.074 116.315 205.074ZM122.891 175.355L116.571 176.807C114.607 177.234 112.984 178.43 111.874 180.138C110.849 181.846 110.508 183.895 110.935 185.859L111.532 188.507C111.789 189.446 112.13 190.3 112.728 191.069L112.899 191.24L111.447 197.986C111.105 199.353 111.362 200.634 112.13 201.829C112.899 202.939 114.009 203.708 115.375 203.964C116.742 204.22 118.023 203.879 119.133 203.11C120.243 202.342 120.926 201.146 121.097 199.78L122.207 192.179L122.378 192.008C124.257 190.386 125.026 187.909 124.513 185.518L122.891 175.355Z" fill="black"/>
<path d="M126.904 241.711C130.15 242.394 132.455 243.761 135.359 245.298C137.836 246.579 138.263 249.055 135.017 249.653C133.224 249.995 131.431 250.336 129.637 249.909C127.758 249.482 127.246 248.458 126.05 247.262C125.026 246.237 123.318 246.75 121.78 246.066C121.183 245.81 120.67 245.469 120.414 244.871C120.243 244.273 120.414 243.675 120.67 243.077C120.841 242.565 121.097 242.053 121.524 241.626C122.293 240.857 123.574 240.942 124.599 241.199C125.367 241.455 126.136 241.626 126.904 241.711Z" fill="white"/>
<path d="M131.345 250.678C130.747 250.678 130.15 250.593 129.466 250.507C127.844 250.166 127.075 249.312 126.307 248.458C126.05 248.201 125.88 247.945 125.623 247.689C125.196 247.262 124.513 247.177 123.659 247.091C122.976 247.006 122.293 246.92 121.524 246.664C120.67 246.237 120.072 245.725 119.816 245.127C119.56 244.358 119.816 243.675 120.072 242.907C120.243 242.394 120.585 241.711 121.012 241.284C121.866 240.515 123.061 240.345 124.684 240.686C125.196 240.772 125.709 240.942 126.221 241.028L126.904 241.199C130.064 241.882 132.37 243.163 135.103 244.615L135.53 244.871C137.067 245.725 138.006 247.006 137.75 248.201C137.665 248.799 137.152 249.909 135.017 250.336C133.993 250.422 132.712 250.678 131.345 250.678ZM123.318 241.626C122.805 241.626 122.293 241.711 121.866 242.053C121.524 242.309 121.353 242.821 121.183 243.248C121.012 243.675 120.841 244.273 120.926 244.615C121.012 244.956 121.353 245.212 121.951 245.469C122.464 245.725 123.147 245.81 123.745 245.81C124.684 245.896 125.623 245.981 126.392 246.75C126.648 247.006 126.904 247.262 127.161 247.518C127.929 248.372 128.442 248.97 129.723 249.226C131.431 249.568 133.224 249.312 134.932 248.97C136.042 248.799 136.725 248.372 136.811 247.774C136.896 247.091 136.213 246.237 135.103 245.639L134.676 245.383C132.028 243.931 129.808 242.736 126.734 242.053L126.05 241.882C125.538 241.796 125.026 241.626 124.428 241.54C124.172 241.711 123.745 241.626 123.318 241.626Z" fill="black"/>
<path d="M123.659 176.38C122.549 177.234 121.097 177.832 119.731 178.088C118.45 178.344 117.083 178.344 115.802 178.686C112.386 179.796 112.813 183.554 113.155 186.457C113.24 187.482 112.386 190.898 110.935 190.386C109.995 190.386 109.824 189.019 109.654 188.421C109.227 187.311 108.8 186.116 108.287 185.005C107.946 184.237 107.689 183.383 107.689 182.529C107.775 181.333 108.629 180.223 108.97 179.027C109.141 178.088 108.97 177.149 109.141 176.209C109.312 174.928 110.166 173.818 111.276 173.135C112.899 172.11 114.778 172.452 116.4 171.598C117.254 171.085 117.937 170.317 118.791 169.719C119.987 168.779 121.61 168.438 123.061 168.694C124.342 168.95 125.538 169.719 126.05 170.914C126.477 172.025 126.136 173.306 125.538 174.33C125.026 175.099 124.428 175.782 123.659 176.38Z" fill="black"/>
<path d="M114.607 185.176C114.863 186.372 114.094 187.653 112.899 187.909C111.703 188.165 110.422 187.397 110.166 186.201C109.91 185.005 110.678 183.724 111.874 183.468C113.07 183.212 114.265 183.981 114.607 185.176Z" fill="white"/>
<path d="M89.7554 212.163C89.243 216.774 89.0722 221.471 88.816 226.168C88.5598 231.292 88.7306 236.416 90.1824 241.369C90.6094 242.907 91.2072 244.444 92.232 245.639C96.075 250.08 105.384 248.287 110.593 248.287C114.863 248.287 119.133 248.287 123.403 248.287C123.488 248.116 123.488 247.86 123.574 247.689C123.915 245.981 125.026 241.796 125.367 240.003C122.634 239.747 119.987 239.576 117.254 239.32C114.948 239.149 112.557 238.978 110.251 238.722C108.373 238.551 105.554 238.978 105.213 236.502C105.127 235.648 105.213 234.708 104.871 233.94C104.359 232.744 102.907 232.061 102.565 230.78C102.309 229.84 102.736 228.645 102.822 227.705C102.907 226.254 103.59 224.973 104.188 223.606C105.127 221.386 105.896 218.995 106.323 216.603C106.152 216.603 106.067 216.603 105.896 216.603" fill="white"/>
<path d="M101.882 249.226C97.9538 249.226 94.0254 248.628 91.805 246.066C90.6094 244.7 90.0116 242.992 89.5846 241.54C88.3036 237.099 87.8766 232.061 88.2182 226.168C88.3036 224.887 88.389 223.521 88.389 222.24C88.5598 218.909 88.7306 215.493 89.0722 212.163L90.1824 212.333C89.7554 215.664 89.5846 219.08 89.4992 222.325C89.4138 223.606 89.4138 224.973 89.3284 226.254C88.9868 232.061 89.4138 236.929 90.6948 241.284C91.1218 242.65 91.6342 244.188 92.659 245.383C95.4772 248.714 101.797 248.287 106.835 247.945C108.202 247.86 109.483 247.774 110.593 247.774H122.976C122.976 247.689 122.976 247.604 123.061 247.604C123.232 246.835 123.488 245.554 123.915 244.102C124.257 242.821 124.513 241.54 124.769 240.601L110.337 239.405C109.995 239.405 109.654 239.405 109.312 239.405C107.519 239.32 105.042 239.32 104.7 236.758C104.7 236.416 104.615 236.16 104.615 235.818C104.615 235.306 104.615 234.708 104.359 234.281C104.188 233.854 103.761 233.427 103.334 233C102.822 232.488 102.224 231.89 101.968 231.036C101.797 230.267 101.882 229.499 102.053 228.73C102.138 228.389 102.138 228.047 102.224 227.791C102.309 226.424 102.822 225.229 103.334 224.033L103.59 223.521C104.53 221.3 105.213 218.995 105.64 216.603H105.811V216.091L106.835 216.176L106.75 216.774C106.323 219.251 105.554 221.642 104.615 223.948L104.359 224.46C103.846 225.57 103.419 226.681 103.334 227.791C103.334 228.132 103.249 228.474 103.163 228.901C103.078 229.499 102.907 230.182 103.078 230.694C103.249 231.207 103.676 231.634 104.103 232.146C104.53 232.659 105.042 233.086 105.298 233.769C105.554 234.367 105.554 235.05 105.64 235.648C105.64 235.904 105.64 236.245 105.725 236.502C105.896 237.953 107.262 238.124 109.227 238.124C109.568 238.124 109.995 238.124 110.251 238.21L125.965 239.491L125.88 240.088C125.709 241.028 125.282 242.65 124.94 244.273C124.599 245.639 124.257 246.92 124.086 247.774L123.745 248.799H110.593C109.568 248.799 108.287 248.885 106.921 248.97C105.298 249.141 103.59 249.226 101.882 249.226Z" fill="black"/>
<path d="M182.414 247.86H132.968C132.968 246.92 133.736 246.152 134.676 246.152H182.414V247.86Z" fill="#00C2FF"/>
<path d="M190.869 246.066H141.422L150.219 219.934C150.56 218.995 151.414 218.397 152.439 218.397H197.018C198.555 218.397 199.665 219.763 199.238 221.215L190.869 246.066Z" fill="#00C2FF"/>
<path d="M190.015 247.86H141.166V246.152L190.869 243.846V247.006C190.869 247.433 190.527 247.86 190.015 247.86Z" fill="#5757FF"/>
<path d="M171.056 232.915C170.117 232.915 169.177 232.061 169.861 230.951C170.117 230.438 170.715 230.267 171.227 230.182H171.312H171.398C172.935 230.609 172.85 233 171.056 232.915Z" fill="#C9CDD1"/>
<path d="M140.227 231.121C140.141 231.463 139.885 231.805 139.629 232.146C139.373 232.488 139.202 232.829 138.946 233.171C138.775 233.427 138.604 233.598 138.433 233.94" fill="white"/>
<path d="M139.031 234.11L138.006 233.683C138.092 233.427 138.263 233.256 138.348 233.171C138.433 233.086 138.433 233 138.519 232.915C138.69 232.573 138.946 232.232 139.202 231.89L139.287 231.805C139.458 231.548 139.629 231.292 139.714 231.121L140.825 231.463C140.654 231.89 140.398 232.232 140.227 232.488L140.141 232.573C139.885 232.829 139.714 233.171 139.544 233.513C139.458 233.598 139.373 233.769 139.287 233.854C139.202 233.854 139.117 233.94 139.031 234.11Z" fill="black"/>
<path d="M117.254 192.179C118.791 194.058 120.756 195.51 122.122 197.474C122.293 196.193 122.464 194.912 122.634 193.631C122.72 192.948 122.976 192.35 123.147 191.667C121.097 192.179 119.389 192.691 117.254 192.179Z" fill="black"/>
<path d="M119.645 187.397C119.731 188.08 120.243 188.592 120.926 188.763C121.524 188.934 122.207 188.678 122.72 188.165C123.147 187.653 123.403 187.055 123.318 186.372C123.318 186.372 123.232 186.372 123.232 186.457" fill="black"/>
<path d="M112.643 184.835C112.301 184.749 111.874 184.92 111.618 185.176C111.362 185.432 111.276 185.945 111.447 186.286C111.618 186.628 112.045 186.799 112.386 186.713" fill="black"/>
<path d="M147.23 293.805C147.059 291.414 147.23 288.937 147.913 286.631L148.084 286.034C148.511 284.582 148.852 283.386 148.596 282.02C148.169 280.226 147.913 278.775 148.596 276.896L149.621 277.323C149.023 278.86 149.279 280.141 149.621 281.764C149.962 283.472 149.535 284.838 149.108 286.375L148.938 286.973C148.254 289.193 148.084 291.414 148.254 293.72L147.23 293.805Z" fill="white"/>
<path d="M163.37 313.447L162.26 313.276C163.541 306.359 165.078 299.441 166.872 292.609L167.299 290.987C169.946 280.91 172.764 270.491 169.092 261.097L170.117 260.67C173.874 270.405 171.056 280.995 168.323 291.243L167.896 292.866C166.188 299.698 164.651 306.615 163.37 313.447Z" fill="white"/>
<path d="M94.367 242.736C94.2816 243.163 94.367 243.59 94.5378 243.931C94.6232 244.102 94.794 244.273 95.0502 244.444C95.4772 244.7 96.075 244.615 96.6728 244.529" fill="black"/>
<path d="M119.731 221.301C119.816 221.301 119.816 221.215 119.902 221.215L119.731 221.301Z" fill="black"/>
<path d="M226.751 110.355C230.24 108.918 231.903 104.925 230.467 101.437C229.03 97.948 225.037 96.2846 221.548 97.7214C218.059 99.1583 216.396 103.151 217.833 106.64C219.27 110.129 223.263 111.792 226.751 110.355Z" fill="black"/>
<path d="M364.069 110.362C367.558 108.925 369.221 104.932 367.784 101.444C366.347 97.955 362.355 96.2916 358.866 97.7285C355.377 99.1653 353.714 103.158 355.151 106.647C356.587 110.136 360.58 111.799 364.069 110.362Z" fill="black"/>
<path d="M89.3393 110.392C92.8522 109.014 94.5831 105.05 93.2055 101.537C91.8279 98.0242 87.8634 96.2933 84.3506 97.6709C80.8377 99.0485 79.1068 103.013 80.4844 106.526C81.862 110.039 85.8264 111.77 89.3393 110.392Z" fill="black"/>
<path d="M111.02 101.57V101.313C111.02 87.991 100.26 77.2306 86.9372 77.2306C73.6148 77.2306 62.8544 87.991 62.8544 101.313V101.57H111.02Z" fill="#00C2FF"/>
<path d="M385.325 101.57V101.313C385.325 87.991 374.564 77.2306 361.242 77.2306C347.92 77.2306 337.159 87.991 337.159 101.313V101.57H385.325Z" fill="#00C2FF"/>
<path d="M362.95 39.6546H360.644V77.2306H362.95V39.6546Z" fill="black"/>
<path d="M248.002 101.57V101.313C248.002 87.991 237.241 77.2306 223.919 77.2306C210.596 77.2306 199.836 87.991 199.836 101.313V101.57H248.002Z" fill="#00C2FF"/>
<path d="M225.627 39.6546H223.321V77.2306H225.627V39.6546Z" fill="black"/>
<path d="M89.1576 39.6546H86.8518V77.2306H89.1576V39.6546Z" fill="black"/>
<path d="M327.851 232.232C327.851 233.427 327.936 233.854 326.911 234.367C325.886 234.794 324.349 234.708 323.239 234.879C320.848 235.306 318.457 235.989 316.322 237.356C312.735 239.661 308.55 240.088 304.793 242.48C304.195 242.907 303.512 243.334 302.828 243.504C301.974 243.761 301.035 243.675 300.096 243.59C297.448 243.504 294.63 244.102 292.751 246.066C292.153 246.75 291.556 247.689 292.068 248.543C292.324 248.97 292.751 249.226 293.178 249.397C296.423 250.849 299.839 249.909 302.914 248.714C305.561 247.689 308.806 247.518 311.625 247.262C316.322 246.92 321.019 247.177 325.63 246.237C328.107 245.725 330.583 245.127 332.889 243.931C334.939 242.907 337.501 241.882 338.526 239.576C338.696 239.149 338.867 238.637 338.953 238.21C339.807 234.794 340.661 231.378 341.515 227.962C342.198 225.4 342.112 222.667 342.027 219.934C341.942 217.714 341.6 215.408 340.831 213.273C340.319 211.65 339.807 209.686 338.867 208.234C337.928 206.782 336.391 205.843 334.683 205.672C331.352 205.331 328.107 207.551 328.363 211.052C328.619 215.408 327.167 219.678 328.192 224.033C328.278 224.546 328.448 225.058 328.448 225.57C328.448 226.083 328.278 226.595 328.192 227.108C327.851 228.901 327.851 230.524 327.851 232.232Z" fill="white"/>
<path d="M296.68 250.678C295.399 250.678 294.118 250.422 292.922 249.909C292.495 249.739 291.897 249.397 291.556 248.799C290.958 247.689 291.556 246.493 292.41 245.725C294.801 243.334 298.302 243.077 300.181 243.077H300.693C301.462 243.077 302.145 243.163 302.743 242.992C303.255 242.821 303.768 242.48 304.366 242.138L304.536 242.053C306.415 240.857 308.465 240.088 310.514 239.405C312.479 238.722 314.357 238.039 316.065 236.929C317.944 235.733 320.165 234.879 323.154 234.367C323.581 234.281 324.093 234.281 324.605 234.196C325.374 234.11 326.228 234.11 326.74 233.854C327.338 233.598 327.338 233.513 327.338 232.573V232.061C327.338 230.438 327.338 228.816 327.68 227.108L327.765 226.851C327.851 226.424 327.936 226.083 327.936 225.656C327.936 225.314 327.851 224.887 327.765 224.46L327.68 224.204C327.082 221.557 327.338 218.995 327.594 216.433C327.765 214.725 327.936 212.846 327.851 211.138C327.765 209.515 328.363 207.978 329.473 206.868C330.84 205.587 332.804 204.989 334.768 205.16C336.647 205.331 338.355 206.355 339.38 207.978C340.148 209.174 340.661 210.796 341.088 212.163C341.173 212.504 341.258 212.846 341.429 213.102C342.112 215.322 342.539 217.628 342.625 219.934C342.71 222.667 342.796 225.4 342.112 228.047L339.55 238.295C339.465 238.807 339.294 239.234 339.123 239.747C338.184 241.967 335.878 243.077 333.914 244.102L333.231 244.444C330.84 245.639 328.192 246.323 325.886 246.75C322.727 247.433 319.567 247.518 316.407 247.604C314.87 247.689 313.333 247.689 311.795 247.774H311.539C308.806 247.945 305.732 248.201 303.255 249.141C301.035 249.995 298.9 250.678 296.68 250.678ZM299.669 244.188C297.875 244.188 295.142 244.529 293.178 246.493C292.666 247.006 292.239 247.774 292.58 248.287C292.751 248.543 293.093 248.799 293.434 248.885C296.423 250.251 299.669 249.312 302.743 248.201C305.39 247.177 308.55 247.006 311.368 246.75H311.625C313.162 246.664 314.784 246.579 316.236 246.579C319.311 246.493 322.47 246.408 325.545 245.725C327.765 245.298 330.327 244.615 332.633 243.504L333.316 243.163C335.195 242.223 337.245 241.284 338.013 239.405C338.184 238.978 338.269 238.551 338.44 238.124L341.002 227.876C341.6 225.4 341.6 222.667 341.515 220.019C341.429 217.799 341.088 215.664 340.404 213.529C340.319 213.187 340.234 212.846 340.063 212.504C339.636 211.138 339.209 209.686 338.526 208.576C337.672 207.295 336.305 206.441 334.768 206.27C333.06 206.099 331.437 206.612 330.327 207.636C329.388 208.49 328.961 209.686 329.046 211.052C329.132 212.931 328.961 214.725 328.79 216.518C328.534 219.08 328.278 221.471 328.79 223.862L328.875 224.119C328.961 224.546 329.132 225.058 329.132 225.57C329.132 226.083 329.046 226.51 328.961 227.022L328.875 227.278C328.534 228.816 328.534 230.353 328.534 231.975V232.488C328.534 233.513 328.534 234.281 327.253 234.794C326.57 235.135 325.63 235.135 324.776 235.221C324.264 235.221 323.837 235.306 323.495 235.391C320.677 235.904 318.542 236.672 316.834 237.783C315.041 238.978 312.991 239.661 311.027 240.345C309.148 241.028 307.098 241.711 305.305 242.907L305.134 242.992C304.536 243.334 303.939 243.761 303.255 243.931C302.401 244.188 301.633 244.102 300.779 244.102H300.352C300.01 244.188 299.839 244.188 299.669 244.188Z" fill="black"/>
<path d="M316.834 310.116C318.2 312.166 319.14 314.045 318.798 316.778C318.286 320.791 315.041 323.353 314.187 327.196C314.101 327.538 314.016 327.88 314.187 328.307C314.357 329.075 315.041 329.588 315.809 329.758C319.567 330.783 322.812 325.232 324.947 323.097C327.594 320.45 330.242 317.717 332.975 315.07C333.658 314.386 333.572 313.105 332.718 312.166L323.751 302.943L322.47 301.576C320.335 299.271 317.005 299.014 315.211 300.979C313.674 302.687 313.76 305.59 315.382 307.896C315.895 308.75 316.407 309.433 316.834 310.116Z" fill="#110809"/>
<path d="M346.69 316.731H348.655V272.921H346.69V316.731Z" fill="#110809"/>
<path d="M366.195 326.001H363.889C363.889 320.621 353.641 317.973 347.834 317.973C347.834 317.973 347.834 317.973 347.749 317.973C342.796 317.973 336.391 319.34 333.402 322.329C332.291 323.439 331.779 324.634 331.779 326.086H329.473C329.473 324.037 330.242 322.243 331.779 320.706C335.451 317.034 342.625 315.753 347.749 315.753C347.749 315.753 347.749 315.753 347.834 315.753C354.239 315.667 366.195 318.656 366.195 326.001Z" fill="#110809"/>
<path d="M348.859 316.948H346.553V327.709H348.859V316.948Z" fill="#110809"/>
<path d="M327.851 327.538C327.851 329.075 329.132 330.356 330.669 330.356C332.206 330.356 333.487 329.075 333.487 327.538C333.487 326.001 332.206 324.72 330.669 324.72C329.132 324.72 327.851 326.001 327.851 327.538Z" fill="#110809"/>
<path d="M344.931 327.538C344.931 329.075 346.212 330.356 347.749 330.356C349.286 330.356 350.567 329.075 350.567 327.538C350.567 326.001 349.286 324.72 347.749 324.72C346.126 324.72 344.931 326.001 344.931 327.538Z" fill="#110809"/>
<path d="M361.925 327.538C361.925 329.075 363.206 330.356 364.743 330.356C366.281 330.356 367.562 329.075 367.562 327.538C367.562 326.001 366.281 324.72 364.743 324.72C363.206 324.72 361.925 326.001 361.925 327.538Z" fill="#110809"/>
<path d="M349.542 258.193V225.912C349.542 220.361 354.068 215.835 359.619 215.835H370.721C376.272 215.835 380.799 220.361 380.799 225.912V261.951C380.799 269.893 374.308 276.469 366.281 276.469H349.628H329.986C329.046 276.469 328.278 275.7 328.278 274.761C328.278 273.821 329.046 273.053 329.986 273.053H334.512C342.881 273.138 349.542 266.477 349.542 258.193Z" fill="white"/>
<path d="M366.451 277.067H330.156C328.875 277.067 327.851 276.042 327.851 274.761C327.851 273.48 328.875 272.455 330.156 272.455H334.683C342.539 272.455 349.03 266.05 349.03 258.108V225.827C349.03 219.934 353.812 215.152 359.705 215.152H370.807C376.699 215.152 381.482 219.934 381.482 225.827V261.865C381.482 270.32 374.735 277.067 366.451 277.067ZM330.156 273.651C329.559 273.651 329.046 274.163 329.046 274.761C329.046 275.359 329.559 275.871 330.156 275.871H366.451C374.137 275.871 380.372 269.637 380.372 261.951V225.912C380.372 220.617 376.102 216.347 370.807 216.347H359.705C354.41 216.347 350.14 220.617 350.14 225.912V258.193C350.14 266.733 343.223 273.651 334.683 273.651H330.156Z" fill="black"/>
<path d="M313.845 320.364C313.418 322.756 312.735 324.805 310.6 326.513C307.44 328.99 303.255 328.648 300.01 330.783C299.754 330.954 299.412 331.21 299.242 331.552C298.9 332.235 298.985 333.089 299.327 333.687C301.377 337.017 307.525 335.309 310.514 335.224C314.272 335.139 318.115 335.053 321.873 334.968C322.897 334.968 323.751 333.943 323.751 332.747V319.937V318.059C323.751 314.899 321.616 312.508 318.969 312.593C316.663 312.764 314.699 314.899 314.272 317.632C314.101 318.656 313.93 319.596 313.845 320.364Z" fill="#110809"/>
<path d="M342.454 203.452L342.283 204.135L342.454 203.452Z" fill="#7A483A"/>
<path d="M334.939 239.064C334.939 239.234 334.853 239.32 334.853 239.491L334.939 238.978C334.939 238.978 334.939 238.978 334.939 239.064Z" fill="#7A483A"/>
<path d="M327.338 211.479L328.534 201.573L327.424 211.479H327.338Z" fill="#7A483A"/>
<path d="M328.962 201.658C329.816 199.011 331.353 196.62 333.915 195.339C334.684 194.997 335.453 194.656 336.307 194.399C338.356 193.716 340.491 193.033 342.626 192.691C342.968 192.606 343.48 192.691 343.566 193.033C343.566 193.204 343.566 193.289 343.48 193.46C343.395 194.058 343.651 194.485 343.566 195.083C343.48 195.766 343.224 196.534 343.053 197.218C342.712 198.669 342.285 200.207 342.455 201.744C342.712 204.05 341.516 205.928 341.516 208.149C341.431 208.49 340.406 213.614 340.32 213.614L327.425 211.479C327.767 208.149 327.852 204.818 328.962 201.658Z" fill="black"/>
<path d="M296.765 265.452C296.594 264.171 296.765 262.805 297.277 261.268C298.217 258.364 300.95 256.485 303.853 255.631C306.757 254.777 309.831 254.863 312.82 254.777C318.884 254.521 324.862 252.642 330.84 252.898C332.377 252.984 333.914 253.411 335.451 253.325C339.55 253.155 342.966 249.739 346.98 249.397C348.347 249.312 349.628 249.568 350.909 249.995C353.044 250.593 355.093 251.617 356.46 253.325C359.278 256.571 359.022 261.609 357.399 265.538C356.716 267.16 355.862 268.697 354.666 269.978C352.958 271.772 350.738 272.797 348.432 273.48C345.785 274.334 343.65 274.248 340.831 274.248C334.683 274.163 328.619 274.163 322.47 274.078C317.944 274.078 313.503 274.59 308.977 274.248C303.682 273.907 297.448 271.089 296.765 265.452Z" fill="black"/>
<path d="M301.377 257.083C303.597 255.375 306.244 254.606 309.319 255.717C310.856 256.314 312.222 257.339 313.333 258.535C318.798 264.769 319.908 275.102 321.531 282.874C322.47 287.4 323.324 292.012 324.008 296.623C324.178 297.904 326.484 309.689 325.716 310.031C324.947 310.373 312.308 311.568 312.479 311.824C310.087 305.505 307.184 299.185 305.22 292.78C304.109 289.108 302.316 285.777 300.779 282.276C299.071 278.177 297.534 273.651 296.68 269.295C295.74 264.257 297.363 260.072 301.377 257.083Z" fill="black"/>
<path d="M335.195 266.221C335.024 266.392 334.939 266.648 334.768 266.819C330.925 272.967 341.258 274.419 345.016 274.419H358.168C365.768 274.419 371.661 270.576 371.917 263.061V240.345C366.537 240.345 361.071 240.345 355.691 240.345C352.446 240.345 348.859 239.918 345.614 240.345C343.308 240.686 343.564 240.174 342.625 242.394C341.429 245.212 342.027 249.739 341.515 252.898C340.831 256.827 339.55 260.755 337.074 263.83C336.391 264.769 335.793 265.452 335.195 266.221Z" fill="#5757FF"/>
<path d="M323.41 285.18C322.556 284.838 321.446 283.386 320.592 283.642C319.738 283.813 318.969 285.436 318.627 286.119C317.603 287.998 317.09 290.218 315.638 291.841C315.468 292.012 315.382 292.182 315.126 292.182C314.699 292.353 314.272 292.097 313.93 291.755C311.198 289.279 311.027 284.411 310.771 280.91C310.429 275.188 313.418 269.466 318.2 266.392C319.823 265.367 321.531 264.684 323.324 263.915C328.961 261.438 334.341 258.449 339.465 255.119C341.685 253.667 343.82 252.642 346.212 251.703C350.396 250.08 354.922 249.568 359.363 250.251C364.743 251.105 370.209 252.215 371.917 259.901C373.283 265.879 370.978 271.345 366.964 272.797C366.878 272.797 366.793 272.882 366.708 272.882L329.388 285.35C329.302 285.35 329.217 285.436 329.132 285.436C328.961 285.521 328.705 285.607 328.534 285.607C326.826 286.119 325.032 285.777 323.41 285.18Z" fill="#00C2FF"/>
<path d="M335.793 197.815C336.134 196.961 336.647 196.107 337.33 195.51C340.746 192.264 346.212 192.435 350.652 192.264C353.471 192.179 356.374 192.179 359.192 192.691C362.181 193.204 364.487 194.314 367.135 195.68C368.672 196.449 370.209 197.218 371.405 198.328C374.223 201.061 374.821 205.245 374.906 209.174C374.991 213.017 371.575 252.728 371.832 252.728C366.878 252.471 361.84 252.471 356.887 252.215C354.325 252.044 351.763 251.959 349.201 251.703C347.834 251.532 346.382 251.703 345.016 251.532C343.479 251.361 343.65 250.678 342.539 249.995C342.027 249.653 341.515 249.909 341.173 249.482C340.917 249.141 341.002 247.689 341.002 247.177C340.917 245.554 340.831 243.846 340.661 242.223C340.49 240.345 339.977 238.551 339.807 236.672C339.465 231.975 339.294 227.193 338.269 222.581C337.415 218.397 335.793 214.468 335.024 210.284C334.426 207.466 334.256 204.477 334.853 201.573C335.024 200.377 335.28 199.011 335.793 197.815Z" fill="black"/>
<path d="M354.068 185.945C354.666 185.176 354.495 185.262 354.752 184.237L357.228 173.733L342.454 170.317L340.661 180.992C340.063 183.724 341.002 186.372 342.966 188.08L344.077 195.51C344.504 198.584 347.407 200.719 350.482 200.207C353.556 199.694 355.52 196.62 354.837 193.631L354.068 185.945Z" fill="white"/>
<path d="M349.457 200.719C348.176 200.719 346.98 200.292 345.955 199.523C344.589 198.584 343.735 197.132 343.564 195.424L342.539 188.251C340.49 186.372 339.636 183.468 340.234 180.735L342.112 169.548L357.997 173.22L355.435 184.237C355.349 184.493 355.349 184.578 355.349 184.749C355.264 185.347 355.179 185.432 354.752 185.945L355.52 193.289C355.862 194.826 355.606 196.534 354.666 197.901C353.727 199.267 352.36 200.207 350.738 200.548C350.14 200.719 349.798 200.719 349.457 200.719ZM342.881 171L341.258 181.077C340.661 183.554 341.515 186.03 343.393 187.653L343.564 187.824L344.674 195.424C344.845 196.791 345.528 197.986 346.639 198.755C347.749 199.523 349.03 199.865 350.396 199.609C351.763 199.353 352.873 198.584 353.641 197.474C354.41 196.364 354.666 194.997 354.325 193.716L353.556 185.859L353.727 185.689C354.154 185.176 354.154 185.176 354.239 184.749C354.239 184.578 354.325 184.408 354.325 184.237L356.63 174.245L342.881 171Z" fill="black"/>
<path d="M343.82 189.873C345.614 189.788 347.407 189.019 347.919 187.226C347.919 187.311 347.578 187.397 347.493 187.482C346.639 187.824 345.614 187.824 344.76 187.738C344.162 187.653 343.564 187.653 343.052 187.311C342.966 187.311 342.966 187.226 342.881 187.226C342.796 187.226 342.796 187.311 342.71 187.311C342.539 187.567 342.625 187.994 342.796 188.251C342.966 188.421 343.137 188.592 343.223 188.848C343.308 189.105 343.308 189.446 343.308 189.702C343.308 189.702 343.564 189.788 343.82 189.873Z" fill="black"/>
<path d="M341.685 172.537C342.71 172.879 343.82 173.135 344.845 173.391C346.382 173.818 347.92 174.074 349.371 174.501C353.385 175.697 352.446 179.625 352.531 183.041C352.531 183.981 352.617 185.005 353.385 185.603C355.52 187.055 356.033 182.529 356.545 181.504C356.801 180.906 357.228 180.479 357.484 179.881C357.997 178.686 357.57 177.319 357.741 176.038C357.826 175.441 357.997 174.928 358.082 174.33C358.253 171.854 356.033 169.633 354.068 168.609C352.446 167.84 350.738 166.73 349.713 165.193C349.542 164.936 349.371 164.68 349.201 164.509C349.03 164.339 348.774 164.253 348.603 164.168C347.407 163.741 346.041 163.997 345.016 164.766C344.674 165.022 344.418 165.278 344.077 165.449C343.479 165.705 342.881 165.534 342.283 165.449C341.429 165.363 340.49 165.62 339.807 166.217C339.123 166.815 338.867 167.84 339.209 168.694C339.38 169.206 339.807 169.548 340.063 170.06C340.575 171.171 340.319 172.025 341.6 172.537C341.515 172.537 341.6 172.537 341.685 172.537Z" fill="#110809"/>
<path d="M350.994 181.504C350.823 182.358 351.336 183.212 352.19 183.383C353.044 183.554 353.898 183.041 354.068 182.187C354.239 181.333 353.727 180.479 352.873 180.308C352.019 180.138 351.165 180.65 350.994 181.504Z" fill="white"/>
<path d="M315.98 269.808C314.614 271.943 313.76 274.505 313.162 276.981C312.137 280.91 311.198 285.009 311.795 288.937C311.966 290.133 312.308 291.243 312.308 292.439C312.393 294.574 311.795 296.623 311.795 298.758C311.795 300.295 312.137 301.747 312.479 303.199C313.247 306.871 313.418 310.543 313.333 314.301C313.247 315.497 313.247 316.692 313.162 317.973C313.076 318.913 313.247 320.279 312.82 321.133C314.272 321.389 315.724 321.56 317.09 321.731C319.738 322.072 322.47 322.414 325.118 322.67C325.972 322.756 327.765 323.183 328.448 322.67C329.046 322.243 329.132 320.791 329.302 320.108C330.498 315.155 331.608 310.031 330.583 304.907C330.413 303.968 330.156 303.114 330.071 302.174C329.986 300.979 330.071 299.868 330.242 298.673C330.925 293.89 332.035 289.193 332.718 284.411C333.402 279.372 333.829 274.248 334.17 269.21C334.853 260.243 322.556 263.146 318.371 266.904C317.432 267.758 316.663 268.783 315.98 269.808Z" fill="#00C2FF"/>
<path d="M278.832 158.361C278.746 158.361 278.575 158.361 278.489 158.361C278.404 158.446 278.832 158.361 278.832 158.361Z" fill="#110809"/>
<path d="M357.741 202.769C356.118 204.306 353.641 205.416 351.848 206.697C350.225 205.245 348.347 204.135 346.212 203.537C345.016 203.196 343.82 203.025 342.71 202.598C337.586 200.719 333.658 196.876 328.363 195.168C325.716 194.314 322.727 193.716 320.933 191.581C318.713 189.019 318.286 185.091 316.663 182.187C315.98 180.992 315.041 180.052 313.674 181.333C312.649 182.273 312.991 184.237 313.247 185.432C313.589 187.311 313.93 189.105 314.357 190.983C314.955 193.716 315.211 194.656 317.688 195.937C320.079 197.218 322.556 198.926 324.435 200.89C325.63 202.171 326.655 203.708 327.851 205.074C331.95 209.857 338.013 212.504 342.625 216.774C344.845 218.824 347.151 221.727 350.567 220.788C351.677 220.446 364.402 217.116 363.975 216.347C362.438 213.614 361.327 211.052 360.132 208.063C359.278 206.185 358.338 204.477 357.741 202.769Z" fill="white"/>
<path d="M349.03 221.386C346.468 221.386 344.589 219.507 342.796 217.799C342.539 217.543 342.283 217.287 342.027 217.03C340.063 215.152 337.757 213.614 335.537 212.077C332.633 210.113 329.644 207.978 327.253 205.331C326.74 204.733 326.228 204.135 325.716 203.452C325.118 202.683 324.52 201.915 323.837 201.146C322.214 199.353 319.994 197.73 317.261 196.278C314.614 194.826 314.272 193.631 313.674 190.898C313.247 189.105 312.906 187.226 312.564 185.347C312.308 183.981 311.966 181.931 313.162 180.735C313.76 180.138 314.443 179.881 315.041 180.052C315.809 180.138 316.492 180.735 317.09 181.76C317.773 183.041 318.286 184.408 318.713 185.774C319.396 187.653 320.079 189.617 321.275 191.069C322.727 192.691 325.032 193.46 327.167 194.143C327.594 194.229 328.021 194.399 328.363 194.57C331.181 195.51 333.658 197.047 336.049 198.499C338.184 199.78 340.404 201.146 342.796 202.085C343.479 202.342 344.077 202.512 344.845 202.683C345.358 202.769 345.785 202.939 346.297 203.025C348.347 203.623 350.225 204.647 351.763 206.014C352.275 205.672 352.787 205.416 353.385 205.074C354.752 204.22 356.203 203.452 357.314 202.427L357.911 201.829L358.168 202.683C358.509 203.708 358.936 204.647 359.363 205.587C359.705 206.355 360.046 207.124 360.388 207.893C361.413 210.455 362.523 213.187 364.146 216.091L364.316 216.347L364.231 216.689C364.06 217.116 363.804 217.714 350.909 221.215L350.482 221.3C349.969 221.3 349.457 221.386 349.03 221.386ZM314.784 181.162C314.528 181.162 314.272 181.333 313.93 181.589C313.162 182.358 313.418 183.981 313.589 185.091C313.93 186.97 314.357 188.848 314.699 190.727C315.297 193.375 315.468 194.058 317.688 195.339C320.506 196.876 322.812 198.584 324.52 200.463C325.203 201.231 325.886 202 326.484 202.769C326.997 203.366 327.424 203.964 327.936 204.562C330.242 207.209 333.145 209.174 335.964 211.138C338.184 212.675 340.575 214.298 342.625 216.262C342.881 216.518 343.137 216.774 343.393 217.03C345.358 218.909 347.322 220.873 349.969 220.105L350.396 220.019C359.534 217.543 362.096 216.518 362.779 216.176C361.242 213.358 360.132 210.711 359.107 208.234C358.851 207.466 358.509 206.782 358.168 206.014C357.826 205.245 357.484 204.562 357.228 203.793C356.203 204.647 354.922 205.331 353.727 206.014C353.044 206.441 352.446 206.782 351.848 207.209L351.506 207.466L351.165 207.209C349.628 205.843 347.749 204.818 345.785 204.22C345.358 204.05 344.845 203.964 344.418 203.879C343.735 203.708 342.966 203.537 342.283 203.281C339.807 202.342 337.501 200.975 335.366 199.609C333.06 198.157 330.669 196.705 327.936 195.766C327.509 195.595 327.167 195.51 326.74 195.424C324.349 194.741 321.958 193.972 320.25 192.008C318.884 190.386 318.115 188.336 317.432 186.286C316.919 184.92 316.492 183.639 315.895 182.443C315.468 181.76 315.041 181.333 314.699 181.248C314.87 181.162 314.87 181.162 314.784 181.162Z" fill="black"/>
<path d="M371.661 210.54C369.867 213.444 367.049 215.664 363.804 216.603L371.661 210.54Z" fill="black"/>
<path d="M363.975 217.116L363.633 216.006C366.708 215.066 369.526 212.931 371.234 210.113L372.173 210.711C370.294 213.785 367.305 216.091 363.975 217.116Z" fill="white"/>
<path d="M270.803 166.132L269.693 165.961L269.779 165.79L270.889 166.047L270.803 166.132Z" fill="black"/>
<path d="M323.324 237.356H267.729C266.79 237.356 265.936 236.672 265.765 235.733L258.847 203.708C258.591 202.427 259.531 201.231 260.812 201.231H316.407C317.346 201.231 318.2 201.915 318.371 202.854L325.289 234.879C325.63 236.16 324.605 237.356 323.324 237.356Z" fill="black"/>
<path d="M292.922 246.493L294.032 233.342C294.118 232.061 293.178 231.036 291.897 231.036C290.787 231.036 289.848 231.89 289.762 233L288.652 246.493H280.624V247.86H301.206V246.493H292.922Z" fill="black"/>
<path d="M283.443 208.576C283.272 207.209 281.137 207.209 281.308 208.576C281.478 210.028 281.649 211.479 281.82 213.017C281.991 214.383 284.126 214.383 283.955 213.017C283.784 211.565 283.613 210.028 283.443 208.576Z" fill="white"/>
<path d="M287.713 208.576C287.542 207.209 285.407 207.209 285.578 208.576C285.748 210.028 285.919 211.479 286.09 213.017C286.261 214.383 288.396 214.383 288.225 213.017C288.054 211.565 287.883 210.028 287.713 208.576Z" fill="white"/>
<path d="M291.983 208.576C291.812 207.209 289.677 207.209 289.848 208.576C290.018 210.028 290.189 211.479 290.36 213.017C290.531 214.383 292.666 214.383 292.495 213.017C292.324 211.565 292.153 210.028 291.983 208.576Z" fill="white"/>
<path d="M296.338 208.576C296.167 207.209 294.032 207.209 294.203 208.576C294.374 210.028 294.545 211.479 294.715 213.017C294.886 214.383 297.021 214.383 296.85 213.017C296.68 211.565 296.509 210.028 296.338 208.576Z" fill="white"/>
<path d="M300.608 208.576C300.437 207.209 298.302 207.209 298.473 208.576C298.644 210.028 298.815 211.479 298.985 213.017C299.156 214.383 301.291 214.383 301.12 213.017C300.95 211.565 300.779 210.028 300.608 208.576Z" fill="white"/>
<path d="M336.476 237.612C336.647 238.551 336.647 239.747 335.878 240.43C335.451 240.772 334.853 240.942 334.341 241.028" fill="black"/>
<path d="M347.236 216.689C347.407 217.372 348.005 218.055 348.688 218.141C349.371 218.311 350.225 217.97 350.652 217.372" fill="#110809"/>
<path d="M214.183 171.854C214.525 171.768 214.781 171.512 214.866 171.256C215.037 171.171 214.098 171.854 214.183 171.854Z" fill="#110809"/>
<path d="M403.6 247.689H57.3034V251.532H403.6V247.689Z" fill="black"/>
<path d="M399.928 338.64H397.281L375.76 248.458H378.407L399.928 338.64Z" fill="black"/>
<path d="M376.102 338.64H373.454L351.933 248.458H354.581L376.102 338.64Z" fill="black"/>
<path d="M61.8296 338.64H64.477L85.9978 248.458H83.3504L61.8296 338.64Z" fill="black"/>
<path d="M85.6562 338.64H88.3036L109.824 248.458H107.262L85.6562 338.64Z" fill="black"/>
<path d="M268.754 285.863C267.558 280.397 257.737 280.824 253.211 280.056C247.148 279.031 241.084 278.006 235.021 276.896C233.654 276.64 232.117 276.469 230.922 277.237C230.238 277.664 229.726 278.348 229.299 278.945C227.506 281.507 225.968 284.411 225.456 287.4C224.944 290.389 225.712 293.634 227.933 295.513C229.897 297.221 232.8 297.733 235.533 298.075C237.156 298.331 238.778 298.673 240.401 298.929C241.34 299.1 242.28 299.014 243.048 299.527C245.44 301.149 244.756 304.907 244.159 307.384C243.561 309.689 242.792 312.166 243.39 314.386C243.561 314.984 243.817 315.582 243.902 316.18C243.988 316.948 243.902 317.802 243.732 318.571C242.963 322.756 241.511 327.282 243.134 331.21C243.305 331.723 243.561 332.15 243.646 332.662C243.732 333.089 243.646 333.516 243.646 333.943C243.305 336.761 242.963 339.665 242.707 342.483C242.707 342.483 252.442 342.91 253.211 342.91C254.321 342.91 256.798 343.337 257.823 342.739C259.36 341.8 259.701 337.103 259.958 335.309C260.299 332.833 260.47 330.356 260.982 327.88C261.836 323.439 263.63 319.254 264.484 314.899C264.911 312.678 264.74 310.373 265.167 308.152C265.509 306.359 266.021 304.48 266.363 302.601C267.131 298.075 267.9 293.634 268.583 289.108C268.754 288.083 268.925 287.058 268.754 286.034C268.754 286.119 268.754 286.034 268.754 285.863Z" fill="black"/>
<path d="M266.875 311.227C266.619 311.995 266.277 312.678 266.021 313.447C265.338 315.326 264.569 317.29 264.484 319.254C264.398 321.304 264.911 323.268 264.996 325.318C265.082 328.734 263.288 331.723 263.288 335.053C263.288 336.334 263.63 337.53 263.715 338.725C263.801 340.006 263.63 341.202 263.459 342.483C263.203 344.533 262.947 346.497 262.605 348.546C262.349 350.169 261.836 351.279 263.801 351.535C268.839 352.048 273.622 351.279 278.66 350.938C278.831 350.938 279.087 350.938 279.258 350.767C279.343 350.681 279.429 350.511 279.429 350.34C281.222 343.337 282.93 336.59 283.784 329.417C283.87 328.734 283.955 328.136 284.211 327.538C284.553 326.769 285.151 326.257 285.663 325.574C286.944 323.951 286.944 322.329 287.542 320.45C288.054 318.656 288.737 316.948 289.079 315.07C290.018 310.629 290.958 306.273 291.897 301.833C292.666 298.16 293.605 294.915 291.641 291.414C291.043 290.304 290.018 289.45 288.994 288.596C280.283 281.507 269.181 277.408 257.908 276.981C253.723 276.81 248.429 276.554 246.806 272.711C246.208 271.259 246.379 269.551 246.123 268.014C245.44 263.403 238.351 262.378 234.594 263.573C229.641 265.196 228.018 271.345 227.506 276.554C227.079 280.824 226.737 285.18 228.018 289.364C229.811 295.513 234.935 300.295 240.828 302.857C245.44 304.907 250.478 305.59 255.431 305.932C259.274 306.188 263.032 305.419 266.79 304.992C269.437 304.651 269.01 305.419 268.156 307.64C267.729 308.921 267.302 310.031 266.875 311.227Z" fill="#00C2FF"/>
<path d="M233.313 197.645C233.484 198.328 233.569 199.011 233.654 199.609C233.911 200.89 233.996 202.427 233.142 203.452C232.63 204.05 231.861 204.306 231.349 204.904C230.58 205.758 230.495 207.039 230.665 208.149C230.836 209.515 230.922 210.711 230.922 211.992C231.007 213.444 231.605 214.725 231.519 216.176C231.434 218.909 229.384 220.703 226.737 220.532C225.2 220.446 223.406 220.19 222.467 218.995C222.04 218.397 221.784 217.628 221.613 216.86C220.332 211.223 219.051 205.331 220.503 199.78C221.015 197.73 221.698 195.253 222.979 193.46C223.833 192.179 224.858 190.471 226.054 189.532C227.164 188.592 228.957 188.336 230.068 189.19C230.836 189.788 231.178 190.727 231.519 191.667C232.373 193.631 232.886 195.595 233.313 197.645Z" fill="white"/>
<path d="M227.249 221.13C227.079 221.13 226.993 221.13 226.822 221.13C225.114 221.044 223.236 220.788 222.125 219.336C221.613 218.653 221.357 217.714 221.186 216.945C219.99 211.565 218.539 205.416 220.076 199.523C220.674 197.218 221.357 194.826 222.638 193.033C222.809 192.777 222.979 192.521 223.15 192.264C223.919 191.154 224.773 189.788 225.883 188.934C227.164 187.909 229.214 187.482 230.58 188.592C231.519 189.275 231.861 190.3 232.203 191.325C232.886 193.289 233.398 195.339 233.825 197.388C233.996 198.072 234.081 198.755 234.252 199.438C234.508 200.89 234.594 202.598 233.569 203.708C233.227 204.05 232.886 204.306 232.544 204.562C232.203 204.733 231.946 204.989 231.776 205.16C231.092 205.928 231.092 207.039 231.263 207.893C231.434 209.003 231.434 209.942 231.519 211.052V211.821C231.519 212.419 231.69 212.931 231.861 213.529C232.032 214.298 232.203 215.152 232.203 216.006C232.117 217.457 231.519 218.824 230.58 219.678C229.641 220.703 228.53 221.13 227.249 221.13ZM228.616 189.19C227.847 189.19 227.079 189.532 226.566 189.959C225.627 190.727 224.858 191.923 224.09 193.033C223.919 193.289 223.748 193.545 223.577 193.802C222.467 195.424 221.784 197.73 221.186 199.865C219.734 205.416 221.101 211.394 222.296 216.689C222.467 217.372 222.638 218.055 222.979 218.653C223.748 219.678 225.371 219.934 226.822 220.019C227.933 220.105 228.957 219.763 229.726 219.08C230.495 218.397 230.922 217.372 231.007 216.176C231.007 215.408 230.836 214.725 230.665 214.041C230.495 213.444 230.409 212.76 230.324 212.077V211.309C230.238 210.284 230.238 209.344 230.068 208.32C229.811 206.697 230.068 205.416 230.836 204.647C231.178 204.306 231.519 204.05 231.861 203.879C232.203 203.708 232.459 203.452 232.63 203.281C233.313 202.512 233.227 201.146 233.057 199.95C232.971 199.267 232.8 198.669 232.715 197.986C232.288 196.022 231.776 193.972 231.092 192.008C230.836 191.154 230.495 190.3 229.811 189.788C229.555 189.361 229.128 189.19 228.616 189.19Z" fill="black"/>
<path d="M247.66 220.959C248.002 218.909 249.197 216.945 250.991 215.835C252.955 214.639 255.004 213.529 257.139 212.76C257.396 212.675 257.737 212.59 257.993 212.419C263.63 210.369 269.608 209.174 275.159 206.868C281.308 204.391 287.286 201.317 293.264 198.584C297.363 196.705 301.291 194.656 304.878 192.008C307.952 189.702 306.928 185.176 308.379 182.016C308.977 180.65 310.173 179.284 311.283 181.077C312.308 182.785 311.966 185.005 312.222 186.97C312.479 188.848 312.735 190.727 311.881 192.521C311.283 193.802 310.258 194.741 309.233 195.68C308.209 196.534 307.269 197.474 306.244 198.328C305.134 199.353 303.939 200.463 302.743 201.402C298.9 204.306 295.228 207.38 291.726 210.54C288.225 213.7 285.065 217.03 281.051 219.592C277.208 222.069 272.768 224.204 268.327 225.4C268.241 225.4 268.156 225.4 268.071 225.485C263.63 226.681 259.616 228.474 254.834 227.962C251.332 227.705 246.977 225.229 247.66 220.959Z" fill="white"/>
<path d="M256.627 228.73C256.115 228.73 255.517 228.73 255.004 228.645C252.784 228.389 249.88 227.449 248.258 225.229C247.318 223.948 246.891 222.496 247.233 220.873C247.66 218.568 248.941 216.518 250.82 215.408C252.784 214.298 254.834 213.102 257.054 212.248C257.31 212.163 257.652 212.077 257.908 211.906C260.385 211.052 262.861 210.284 265.338 209.601C268.583 208.661 271.914 207.722 275.073 206.441C279.343 204.733 283.528 202.683 287.627 200.804C289.506 199.95 291.299 199.011 293.178 198.157C296.765 196.534 300.95 194.485 304.622 191.667C306.33 190.386 306.671 188.251 307.013 186.03C307.184 184.578 307.44 183.127 308.038 181.931C308.379 181.162 309.148 179.881 310.258 179.796C310.941 179.796 311.454 180.138 311.966 180.992C312.735 182.358 312.82 183.895 312.906 185.347C312.906 185.945 312.991 186.543 312.991 187.055C313.247 189.019 313.503 190.983 312.564 192.948C311.881 194.314 310.771 195.339 309.746 196.278L306.757 198.926C306.415 199.182 306.159 199.438 305.903 199.78C305.049 200.548 304.195 201.317 303.255 202.085C299.498 204.904 295.74 207.978 292.239 211.223C291.556 211.906 290.787 212.504 290.104 213.187C287.286 215.749 284.724 218.226 281.478 220.361C277.294 223.094 272.853 225.143 268.583 226.254L268.412 226.339C267.473 226.595 266.448 226.937 265.509 227.193C262.69 227.791 259.701 228.73 256.627 228.73ZM248.172 221.044C248.002 222.325 248.258 223.521 249.026 224.546C250.478 226.424 253.04 227.278 255.004 227.449C258.591 227.791 261.751 226.851 265.082 225.827C266.021 225.57 267.046 225.229 267.985 224.973L268.241 224.887C272.341 223.777 276.696 221.813 280.795 219.165C283.955 217.116 286.517 214.725 289.25 212.163C289.933 211.479 290.616 210.882 291.385 210.198C294.886 206.953 298.644 203.879 302.487 200.975C303.341 200.292 304.195 199.523 305.049 198.755C305.39 198.499 305.647 198.242 305.988 197.901L308.977 195.253C310.002 194.399 310.941 193.46 311.539 192.264C312.308 190.642 312.052 188.848 311.795 186.97C311.71 186.372 311.71 185.774 311.625 185.176C311.539 183.81 311.539 182.443 310.856 181.333C310.6 180.906 310.429 180.735 310.173 180.735C309.917 180.735 309.404 181.248 308.892 182.187C308.379 183.297 308.209 184.578 307.952 186.03C307.611 188.421 307.269 190.898 305.134 192.435C301.291 195.339 297.107 197.388 293.434 199.096C291.556 199.95 289.762 200.804 287.883 201.744C283.784 203.708 279.514 205.672 275.244 207.466C271.999 208.747 268.668 209.771 265.423 210.711C262.947 211.394 260.47 212.163 258.079 213.017C257.823 213.102 257.481 213.187 257.225 213.358C255.09 214.127 253.04 215.322 251.161 216.433C249.71 217.287 248.514 219.08 248.172 221.044Z" fill="black"/>
<path d="M244.927 266.648C244.927 266.819 232.8 267.416 231.69 267.502C229.47 267.673 226.652 268.27 224.517 267.929C223.15 267.673 222.552 266.221 220.93 266.562C219.99 266.733 218.795 267.075 218.112 266.392C217.685 265.965 217.599 265.281 217.514 264.598C217.258 260.072 217.001 255.46 216.745 250.934C216.574 247.177 211.877 246.152 209.145 244.444C207.266 243.248 205.472 242.138 203.594 240.942C207.095 233.427 211.877 227.022 217.599 221.044C223.577 214.81 227.762 214.298 236.473 214.212C243.475 214.127 250.564 213.187 257.31 211.479C258.933 217.287 260.641 223.094 262.263 228.816C258.25 230.951 253.382 232.573 249.026 234.025C247.745 234.537 246.379 235.05 245.61 236.245C245.098 237.185 245.013 238.295 245.013 239.405C245.098 248.458 245.013 257.51 244.927 266.648Z" fill="black"/>
<path d="M263.459 306.188L261.239 305.932C261.666 302.345 262.093 298.673 261.666 295.171C261.409 292.439 260.47 288.681 257.823 285.777C254.15 281.934 248.343 280.91 242.194 280.141L232.373 278.945L232.63 276.725L242.451 277.921C249.026 278.689 255.261 279.799 259.445 284.24C262.605 287.571 263.63 291.841 263.886 294.915C264.313 298.758 263.886 302.516 263.459 306.188Z" fill="white"/>
<path d="M225.712 304.565H223.748V348.376H225.712V304.565Z" fill="#110809"/>
<path d="M242.878 357.599H240.572C240.572 356.232 240.059 354.951 238.949 353.841C235.96 350.852 229.641 349.486 224.602 349.486C224.602 349.486 224.602 349.486 224.517 349.486C218.795 349.486 208.461 352.219 208.461 357.513H206.156C206.156 350.254 218.112 347.18 224.431 347.18C224.431 347.18 224.431 347.18 224.517 347.18C229.555 347.18 236.729 348.461 240.486 352.133C242.109 353.841 242.878 355.635 242.878 357.599Z" fill="#110809"/>
<path d="M225.968 348.632H223.663V359.392H225.968V348.632Z" fill="#110809"/>
<path d="M244.586 359.136C244.586 360.673 243.305 361.954 241.767 361.954C240.23 361.954 238.949 360.673 238.949 359.136C238.949 357.599 240.23 356.318 241.767 356.318C243.305 356.403 244.586 357.599 244.586 359.136Z" fill="#110809"/>
<path d="M227.506 359.136C227.506 360.673 226.225 361.954 224.687 361.954C223.15 361.954 221.869 360.673 221.869 359.136C221.869 357.599 223.15 356.318 224.687 356.318C226.31 356.403 227.506 357.599 227.506 359.136Z" fill="#110809"/>
<path d="M210.511 359.136C210.511 360.673 209.23 361.954 207.693 361.954C206.156 361.954 204.875 360.673 204.875 359.136C204.875 357.599 206.156 356.318 207.693 356.318C209.23 356.403 210.511 357.599 210.511 359.136Z" fill="#110809"/>
<path d="M238.266 288.083V250.422C238.266 243.931 232.288 238.637 224.944 238.637H210.255C202.91 238.637 196.932 243.931 196.932 250.422V292.524C196.932 301.833 205.558 309.433 216.062 309.433H238.095H263.886C265.167 309.433 266.106 308.579 266.106 307.469C266.106 306.359 265.082 305.505 263.886 305.505H257.908C247.062 305.419 238.266 297.648 238.266 288.083Z" fill="white"/>
<path d="M263.886 309.946H215.977C205.131 309.946 196.335 302.089 196.335 292.439V250.336C196.335 243.504 202.569 237.953 210.255 237.953H224.944C232.63 237.953 238.864 243.504 238.864 250.336V287.998C238.864 297.221 247.404 304.822 257.908 304.822H263.886C265.423 304.822 266.704 305.932 266.704 307.384C266.704 308.835 265.423 309.946 263.886 309.946ZM210.255 239.234C203.252 239.234 197.445 244.273 197.445 250.422V292.524C197.445 301.491 205.729 308.835 215.977 308.835H263.886C264.825 308.835 265.594 308.238 265.594 307.384C265.594 306.615 264.825 305.932 263.886 305.932H257.908C246.806 305.932 237.668 297.904 237.668 287.998V250.336C237.668 244.188 231.946 239.149 224.858 239.149H210.255V239.234Z" fill="black"/>
<path d="M212.817 187.14C210.853 187.226 208.803 187.311 207.01 187.994C203.337 189.275 201.715 192.008 199.836 195.083C197.957 198.157 194.883 199.95 192.492 202.598C188.136 207.466 187.538 215.322 191.125 220.788C192.321 222.581 193.858 224.119 195.566 225.4C205.131 232.659 220.674 227.449 226.225 217.287C229.128 211.906 228.018 205.331 226.822 199.353C226.139 196.022 226.566 193.46 229.982 191.752C230.836 191.325 231.861 191.069 232.63 190.471C234.594 189.19 235.362 186.286 234.423 184.066C233.484 181.846 231.263 180.308 228.872 180.052C227.847 179.967 226.737 180.052 225.798 180.479C223.492 181.419 222.296 183.895 220.247 185.262C218.197 186.799 215.55 186.97 212.817 187.14Z" fill="white"/>
<path d="M206.156 229.328C202.056 229.328 198.299 228.132 195.224 225.827C193.26 224.375 191.723 222.752 190.613 221.044C186.855 215.408 187.453 207.295 191.979 202.171C192.919 201.146 193.943 200.207 194.968 199.267C196.591 197.815 198.128 196.449 199.238 194.656C201.117 191.581 202.825 188.763 206.668 187.397C208.547 186.713 210.682 186.628 212.646 186.543L212.731 187.14V186.543C215.379 186.372 217.941 186.286 219.905 184.835C220.674 184.322 221.357 183.554 222.125 182.785C223.15 181.675 224.175 180.565 225.627 179.967C226.652 179.54 227.762 179.369 228.957 179.54C231.69 179.796 233.996 181.504 235.021 183.895C236.046 186.457 235.192 189.532 232.971 190.983C232.459 191.325 231.776 191.581 231.263 191.837C230.922 192.008 230.58 192.094 230.238 192.264C227.079 193.887 226.822 196.193 227.42 199.267C228.701 205.843 229.641 212.248 226.737 217.543C223.748 223.008 217.685 227.364 210.938 228.73C209.401 229.157 207.778 229.328 206.156 229.328ZM228.189 180.65C227.42 180.65 226.737 180.821 226.139 181.077C224.944 181.589 224.004 182.529 223.065 183.639C222.382 184.408 221.613 185.176 220.674 185.859C218.368 187.482 215.55 187.567 212.902 187.738C210.938 187.824 208.974 187.909 207.266 188.592C203.85 189.788 202.227 192.435 200.434 195.424C199.238 197.388 197.616 198.84 195.993 200.292C194.968 201.146 193.943 202.085 193.089 203.11C188.905 207.807 188.392 215.322 191.808 220.617C192.833 222.24 194.285 223.692 196.164 225.143C200.092 228.132 205.387 229.072 210.938 227.876C217.343 226.51 223.15 222.411 225.968 217.201C228.701 212.163 227.762 206.014 226.566 199.694C225.968 196.791 225.968 193.545 229.982 191.496C230.324 191.325 230.665 191.154 231.007 191.069C231.605 190.813 232.117 190.642 232.544 190.3C234.252 189.19 234.935 186.628 234.167 184.578C233.398 182.614 231.349 181.162 229.043 180.906C228.616 180.735 228.445 180.65 228.189 180.65Z" fill="black"/>
<path d="M275.757 218.055C275.671 218.141 275.671 218.311 275.757 218.397C276.184 219.08 277.038 219.336 277.806 219.336C278.575 219.251 279.258 218.909 279.856 218.397" fill="black"/>
<path d="M47.3116 347.436C50.1298 347.18 53.0334 347.436 56.0224 348.205C56.0224 343.252 55.8516 338.298 55.5954 333.345C55.4246 330.1 54.229 327.026 50.386 326.428C48.0802 326.001 46.2868 326.769 45.6036 328.734C43.981 333.26 46.116 342.141 47.3116 347.436Z" fill="white"/>
<path d="M56.6202 348.973L55.937 348.803C53.0334 348.034 50.1298 347.778 47.397 348.034L46.8846 348.119L46.6284 347.009C45.3474 341.458 43.4686 333.174 45.1766 328.563C45.9452 326.428 47.9094 325.488 50.5568 325.915C54.0582 326.513 56.0224 329.075 56.1932 333.431C56.4494 338.384 56.6202 343.422 56.6202 348.376V348.973ZM49.532 346.753C51.4962 346.753 53.4604 347.009 55.51 347.522C55.51 342.825 55.3392 338.128 55.083 333.431C54.9122 329.588 53.375 327.538 50.386 327.026C49.1904 326.855 47.0554 326.769 46.2014 328.99C44.5788 333.26 46.543 341.714 47.7386 346.753V346.924C48.3364 346.753 48.9342 346.753 49.532 346.753Z" fill="black"/>
<path d="M35.7826 308.152C36.1242 311.312 35.6118 314.899 35.441 318.059C35.2702 321.731 37.0636 324.549 37.4052 328.05C37.8322 331.296 37.8322 334.797 37.7468 338.213C37.7468 338.384 37.8322 338.469 38.003 338.469H59.4384C59.6092 338.469 59.6946 338.384 59.6946 338.213C59.9508 335.993 60.1216 334.114 60.1216 334.114C60.4632 330.954 60.5486 328.392 59.6092 325.403C59.2676 324.122 58.926 322.841 58.6698 321.475C58.2428 319.425 57.9866 317.29 57.8158 315.24C57.4742 312.081 57.4742 308.921 57.218 305.761C56.9618 302.687 56.4494 299.612 55.937 296.623C54.3144 287.4 52.7772 278.177 50.5568 269.039C49.4466 264.427 48.1656 259.901 46.7138 255.46C44.9204 250.166 42.7 245.042 39.8818 240.259C38.1738 237.356 36.1242 234.196 32.7082 233.086C30.0608 232.232 26.9864 231.89 24.339 233C20.7522 234.537 17.934 237.441 14.945 239.918C14.518 241.882 14.091 243.846 13.7494 245.896C12.81 250.593 14.091 256.058 16.3114 260.157C17.1654 261.695 18.1902 263.146 18.8734 264.769C19.8982 267.16 20.069 269.893 20.8376 272.37C21.6062 274.846 22.8872 277.152 24.1682 279.372C28.9506 287.998 34.7578 298.246 35.7826 308.152Z" fill="black"/>
<path d="M66.9536 235.391C67.466 237.441 67.1244 240.088 68.4054 241.882C69.6864 243.675 73.7002 244.273 75.7498 245.042C76.1768 245.212 76.6892 245.383 76.9454 245.725C77.714 246.579 77.0308 248.116 76.006 248.543C74.9812 248.97 73.7002 248.799 72.59 248.543C69.9426 247.945 67.2952 247.347 64.5624 246.75C64.05 246.664 63.4522 246.493 62.9398 246.237C61.5734 245.469 61.061 243.761 60.8902 242.223C59.4384 231.207 49.0196 223.862 45.5182 213.529C44.5788 210.882 44.0664 208.149 43.554 205.331C42.7854 201.317 42.0168 197.303 41.1628 193.289C40.565 190.386 38.9424 187.824 40.6504 185.005C41.9314 182.785 44.9204 181.846 47.397 182.785C51.24 184.237 52.6064 188.507 53.802 191.923C55.4246 196.705 56.791 201.146 56.5348 206.27C56.4494 207.636 56.2786 209.088 56.791 210.369C57.3034 211.821 58.5844 212.846 59.5238 214.041C62.8544 218.055 63.3668 223.35 64.5624 228.218C65.1602 230.694 66.3558 232.915 66.9536 235.306C66.9536 235.306 66.9536 235.306 66.9536 235.391Z" fill="white"/>
<path d="M74.6396 249.312C73.871 249.312 73.1024 249.141 72.5046 248.97L64.477 247.177C63.8792 247.006 63.2814 246.92 62.769 246.579C61.488 245.896 60.7194 244.444 60.4632 242.138C59.6092 236.075 56.1932 231.207 52.4356 226.083C49.6174 222.154 46.7138 218.141 45.0912 213.529C44.1518 210.796 43.6394 207.978 43.0416 205.331C42.7854 203.964 42.5292 202.683 42.273 201.317C41.7606 198.669 41.2482 195.937 40.6504 193.289C40.4796 192.606 40.3088 191.923 40.138 191.325C39.4548 189.19 38.7716 186.97 40.2234 184.578C41.6752 182.187 44.9204 181.077 47.6532 182.102C51.5816 183.554 53.0334 187.824 54.229 191.24L54.3998 191.667C56.1078 196.791 57.4742 201.061 57.1326 206.27V206.782C57.0472 207.978 56.9618 209.088 57.3888 210.113C57.7304 211.052 58.499 211.906 59.2676 212.675C59.5238 212.931 59.78 213.273 60.0362 213.614C62.769 216.86 63.7084 221.044 64.5624 225.058C64.7332 226.083 64.9894 227.022 65.2456 228.047C65.5018 229.243 66.0142 230.438 66.4412 231.548C66.8682 232.744 67.2952 233.854 67.6368 235.135V235.306C67.8076 235.989 67.893 236.843 67.9784 237.526C68.1492 238.978 68.2346 240.43 69.0032 241.54C69.8572 242.736 72.2484 243.334 74.1272 243.931C74.8104 244.102 75.4936 244.273 76.0914 244.529C76.5184 244.7 77.1162 244.871 77.5432 245.383C77.9702 245.896 78.141 246.493 77.9702 247.177C77.7994 248.031 77.1162 248.799 76.3476 249.141C75.6644 249.226 75.152 249.312 74.6396 249.312ZM45.5182 182.956C43.8102 182.956 42.0168 183.81 41.1628 185.262C39.9672 187.226 40.565 189.019 41.1628 191.069C41.3336 191.752 41.5898 192.435 41.7606 193.204C42.3584 195.851 42.8708 198.584 43.3832 201.231C43.6394 202.598 43.8956 203.879 44.1518 205.245C44.6642 207.893 45.262 210.711 46.116 213.358C47.6532 217.799 50.4714 221.813 53.2896 225.656C56.8764 230.694 60.634 235.818 61.488 242.223C61.7442 244.102 62.342 245.298 63.2814 245.81C63.7084 246.066 64.2208 246.152 64.7332 246.237L72.7608 248.031C73.9564 248.287 74.9812 248.458 75.8352 248.116C76.2622 247.945 76.6892 247.433 76.7746 247.006C76.86 246.75 76.86 246.493 76.6038 246.237C76.3476 245.981 76.006 245.81 75.579 245.725C75.0666 245.554 74.3834 245.383 73.7002 245.212C71.4798 244.615 69.0032 243.931 67.893 242.48C66.8682 241.113 66.7828 239.491 66.612 237.868C66.5266 237.099 66.4412 236.416 66.3558 235.733V235.562C66.0996 234.367 65.6726 233.256 65.1602 232.146C64.7332 230.951 64.2208 229.755 63.9646 228.474C63.7084 227.535 63.5376 226.51 63.2814 225.485C62.4274 221.642 61.5734 217.628 59.0114 214.554C58.7552 214.298 58.499 213.956 58.2428 213.7C57.4742 212.846 56.6202 211.906 56.1932 210.711C55.7662 209.43 55.8516 208.149 55.937 206.868V206.355C56.1932 201.317 54.9122 197.132 53.2042 192.179L53.0334 191.752C51.9232 188.421 50.5568 184.578 47.1408 183.297C46.6284 183.041 46.116 182.956 45.5182 182.956Z" fill="black"/>
<path d="M8.54001 352.048C11.3582 351.792 14.2618 352.048 17.08 352.816C18.361 348.119 19.5566 343.337 20.5814 338.555C21.2646 335.395 20.8376 332.491 17.2508 331.893C15.0304 331.552 13.0662 332.235 11.8706 334.114C8.88161 338.555 8.71081 347.009 8.54001 352.048Z" fill="white"/>
<path d="M17.4216 353.5L16.9092 353.329C14.1764 352.56 11.4436 352.304 8.6254 352.56L7.9422 352.646L8.0276 351.365C8.1984 346.07 8.4546 338.042 11.3582 333.687C12.6392 331.723 14.8596 330.869 17.3362 331.21C18.8734 331.466 19.9836 332.15 20.6668 333.174C21.5208 334.455 21.6916 336.249 21.1792 338.555C20.1544 343.337 18.9588 348.119 17.6778 352.816L17.4216 353.5ZM10.7604 351.45C12.7246 351.45 14.6888 351.706 16.653 352.219C17.8486 347.692 18.9588 343.081 19.9836 338.555C20.4106 336.505 20.3252 335.053 19.642 334.028C19.1296 333.26 18.2756 332.833 17.08 332.577C15.0304 332.235 13.3224 332.918 12.2976 334.541C9.5648 338.64 9.3086 346.753 9.1378 351.621C9.6502 351.45 10.1626 351.45 10.7604 351.45Z" fill="black"/>
<path d="M31.4272 358.026C29.3776 359.307 26.901 359.478 24.5952 359.392C24.339 359.392 24.0828 359.392 23.912 359.392C20.2398 359.392 16.653 359.221 12.9808 358.965C11.529 358.88 9.82102 358.709 8.54002 357.77C7.08822 356.745 7.25902 354.951 7.68602 353.329C8.02762 351.962 8.19842 350.596 8.28382 349.144C9.99182 349.657 11.8706 350.254 13.664 349.998C14.6888 349.913 15.6282 349.657 16.5676 349.23C16.9946 349.059 17.4216 348.803 17.8486 348.461C18.1048 348.29 18.7026 347.607 18.9588 347.607C19.215 347.692 19.3858 348.29 19.4712 348.461C19.7274 348.888 20.1544 349.315 20.496 349.657C21.2646 350.34 22.1186 350.852 23.058 351.194C23.912 351.535 24.8514 351.621 25.7054 351.792C26.9864 352.048 28.2674 352.304 29.5484 352.646C30.317 352.816 31.0856 353.073 31.7688 353.5C32.452 353.927 32.9644 354.695 33.0498 355.464C33.1352 356.318 32.5374 357.172 31.7688 357.684C31.598 357.94 31.5126 358.026 31.4272 358.026Z" fill="black"/>
<path d="M69.174 352.475C68.9178 353.5 67.7222 354.268 66.612 354.61C61.7442 356.062 56.4494 354.695 51.4108 355.122C50.1298 355.208 48.8488 355.464 47.6532 355.122C44.835 354.439 44.9204 350.938 45.6036 348.717C45.9452 347.692 46.4576 346.582 46.116 345.557C48.3364 345.984 50.7276 346.07 52.948 345.728C53.802 345.557 54.656 345.387 55.3392 344.874C55.6808 344.618 56.0224 344.362 56.364 344.533C56.6202 344.618 56.7056 344.874 56.8764 345.045C57.9866 346.753 59.4384 347.436 61.1464 348.29C61.915 348.632 62.4274 349.059 63.2814 349.315C64.3062 349.571 65.331 349.742 66.3558 349.998C67.5514 350.254 68.9178 350.681 69.174 351.877C69.2594 352.048 69.2594 352.304 69.174 352.475Z" fill="#00C2FF"/>
<path d="M34.0746 277.237C33.5622 272.028 33.3914 266.819 33.1352 261.524C32.879 256.485 32.2812 251.532 31.4272 246.579C31.171 244.7 31.3418 243.077 30.744 241.284C29.9754 238.978 29.036 236.672 27.755 234.537C25.8762 231.463 23.2288 228.816 19.8128 227.62C17.507 226.766 14.945 226.766 12.81 228.047C10.7604 229.243 9.6502 231.292 8.6254 233.427C8.0276 234.708 7.4298 235.904 6.7466 237.185C5.3802 239.918 4.0138 242.736 3.2452 245.639C2.3912 248.628 2.135 251.788 2.989 254.692C3.5014 256.571 4.6116 257.595 5.4656 259.218C6.5758 261.268 7.259 263.573 7.3444 265.794C7.4298 267.416 7.1736 269.124 7.0882 270.747C6.9174 274.505 7.686 278.177 8.7108 281.764C9.1378 283.215 9.5648 284.582 9.5648 286.119C9.6502 287.315 9.394 288.51 9.394 289.791C9.2232 293.122 9.821 296.367 9.9918 299.612C10.1626 302.943 9.4794 305.676 8.1984 308.75C7.4298 310.714 7.0028 312.849 7.0028 314.984C7.0028 318.229 7.5152 321.56 6.5758 324.72C6.3196 325.659 5.8926 326.599 5.4656 327.538C3.843 331.552 3.1598 335.822 2.562 340.092C2.562 340.348 2.6474 340.519 2.9036 340.519C4.3554 340.69 9.4794 341.714 9.9064 341.8C14.518 342.312 18.788 340.775 23.3142 341.8C23.485 341.885 23.7412 341.714 23.8266 341.544C27.328 331.893 29.9754 322.158 31.8542 312.081C32.3666 309.177 32.025 306.444 32.1104 303.626C32.1958 302.601 32.452 300.893 32.7936 299.954C34.4162 294.317 35.7826 288.937 34.7578 282.959C34.5016 281.08 34.2454 279.202 34.0746 277.237Z" fill="#00C2FF"/>
<path d="M41.1628 180.565C39.0278 178.686 36.295 177.405 33.5622 176.892C32.5374 176.722 31.5126 176.636 30.5732 176.892C29.89 177.063 29.2922 177.49 28.7798 177.832C24.5952 180.479 21.0084 184.066 18.9588 188.592C17.2508 192.35 16.3968 196.364 15.6282 200.377C15.2012 202.769 10.9312 231.548 9.4794 231.121C11.1874 231.634 12.8954 231.975 14.518 232.573C16.8238 233.427 19.215 234.367 21.5208 235.391C26.1324 237.356 30.6586 239.491 35.5264 240.686C36.1242 240.174 36.722 239.576 37.0636 238.722C38.1738 236.245 39.1132 233.427 39.4548 230.694C40.992 220.703 41.7606 210.113 44.3226 200.292C45.5182 195.851 46.2868 190.898 45.0058 186.372C44.3226 184.066 42.9562 182.102 41.1628 180.565Z" fill="black"/>
<path d="M37.9176 234.964C39.1132 235.562 40.3942 236.075 41.6752 236.672C47.5678 239.405 53.1188 242.736 58.2428 246.75C56.7056 248.116 55.4246 249.909 55.2538 251.959C55.1684 254.009 56.7056 256.229 58.7552 256.144C59.9508 254.777 60.1216 252.898 60.9756 251.276C62.0858 249.226 65.4164 249.312 66.185 247.774C66.9536 246.152 65.1602 244.017 64.3062 242.821C61.7442 239.576 57.8158 237.612 55.2538 234.452C54.3144 233.342 53.7166 231.975 52.8626 230.78C51.5816 228.816 49.7882 227.108 47.824 225.827C43.8956 223.35 42.5292 219.849 40.565 215.749C39.9672 214.468 39.3694 213.187 39.0278 211.821C38.6008 210.113 38.6008 208.234 38.3446 206.526C37.9176 203.964 36.9782 201.573 35.868 199.267C34.8432 197.132 33.733 195.083 32.025 193.46C30.317 191.837 27.9258 190.898 25.7054 191.24C22.8872 191.752 20.7522 194.314 19.8982 197.047C19.0442 199.78 19.3004 202.769 19.642 205.672C19.9836 208.405 20.4106 211.223 21.6916 213.7C22.9726 216.091 24.766 218.055 26.047 220.361C27.328 222.581 28.0112 224.973 29.036 227.278C31.0002 231.378 34.3308 233.256 37.9176 234.964Z" fill="white"/>
<path d="M58.6698 256.656C57.7304 256.656 56.791 256.229 56.1078 255.546C55.1684 254.606 54.656 253.24 54.7414 251.874C54.8268 250.166 55.6808 248.458 57.3888 246.75C52.4356 242.992 47.1408 239.747 41.5044 237.185C40.8212 236.843 40.138 236.587 39.4548 236.245C38.857 235.989 38.3446 235.733 37.7468 235.477C34.2454 233.854 30.6586 231.975 28.609 227.62C28.182 226.681 27.755 225.656 27.4134 224.716C26.901 223.35 26.3886 222.069 25.62 220.788C25.0222 219.763 24.2536 218.738 23.5704 217.714C22.7164 216.603 21.8624 215.408 21.1792 214.041C19.8128 211.479 19.3858 208.576 19.0442 205.843C18.7026 202.939 18.4464 199.865 19.3004 197.047C20.2398 193.716 22.7164 191.325 25.5346 190.813C27.8404 190.386 30.4024 191.325 32.3666 193.204C34.16 194.912 35.3556 197.047 36.3804 199.182C37.3198 201.146 38.43 203.793 38.857 206.612C38.9424 207.295 39.0278 208.063 39.1132 208.747C39.1986 209.857 39.284 210.882 39.5402 211.906C39.8818 213.187 40.4796 214.468 40.992 215.664L41.419 216.603C43.127 220.19 44.4934 223.35 47.9948 225.485C50.0444 226.766 51.8378 228.559 53.2042 230.609C53.5458 231.121 53.802 231.548 54.1436 232.061C54.656 232.829 55.083 233.598 55.5954 234.281C56.791 235.818 58.3282 237.014 59.9508 238.295C61.5734 239.576 63.2814 240.942 64.6478 242.65L64.8186 242.821C65.8434 244.102 67.5514 246.323 66.612 248.201C66.185 249.141 65.1602 249.482 64.05 249.909C63.0252 250.336 61.915 250.763 61.4026 251.703C61.061 252.301 60.8902 252.898 60.634 253.582C60.2924 254.606 59.9508 255.717 59.0968 256.571L58.926 256.741H58.6698C58.7552 256.656 58.7552 256.656 58.6698 256.656ZM38.1738 234.367C38.6862 234.623 39.284 234.879 39.8818 235.135C40.565 235.477 41.2482 235.733 42.0168 236.075C47.9094 238.807 53.5458 242.223 58.6698 246.237L59.1822 246.664L58.6698 247.091C56.8764 248.799 55.937 250.336 55.8516 251.959C55.7662 252.984 56.1932 254.009 56.8764 254.777C57.218 255.119 57.7304 255.546 58.499 255.546C59.0114 254.863 59.353 254.009 59.6092 253.069C59.8654 252.386 60.1216 251.617 60.4632 250.934C61.1464 249.653 62.5128 249.141 63.7084 248.628C64.5624 248.287 65.4164 247.945 65.6726 247.433C66.2704 246.237 64.7332 244.358 63.9646 243.248L63.7938 243.077C62.5128 241.455 60.8902 240.174 59.2676 238.893C57.645 237.612 56.0224 236.331 54.656 234.708C54.0582 233.94 53.5458 233.171 53.1188 232.402C52.8626 231.89 52.521 231.463 52.2648 231.036C50.9838 229.157 49.2758 227.535 47.397 226.254C43.6394 223.862 42.1022 220.617 40.3942 216.86L39.9672 215.92C39.3694 214.639 38.7716 213.358 38.43 211.906C38.1738 210.796 38.0884 209.686 37.9176 208.576C37.8322 207.893 37.8322 207.209 37.6614 206.526C37.2344 203.879 36.1242 201.317 35.2702 199.438C34.3308 197.474 33.2206 195.424 31.5126 193.887C29.7192 192.264 27.5842 191.496 25.62 191.837C23.2288 192.264 21.0938 194.399 20.2398 197.218C19.4712 199.865 19.7274 202.769 19.9836 205.587C20.3252 208.234 20.6668 211.052 21.9478 213.444C22.631 214.639 23.3996 215.835 24.2536 216.945C24.9368 217.97 25.7054 218.995 26.3886 220.105C27.1572 221.471 27.6696 222.838 28.2674 224.204C28.609 225.143 29.036 226.083 29.463 227.022C31.5126 231.121 34.9286 232.915 38.1738 234.367Z" fill="black"/>
<path d="M36.295 178.942C35.6972 179.711 35.2702 180.65 35.014 181.589C33.6476 186.543 35.6118 192.691 37.6614 197.218C38.43 198.84 38.7716 201.658 40.565 202.512C41.846 203.11 42.7 202.171 43.8102 201.658C45.0058 201.061 46.3722 200.548 47.6532 199.865C50.4714 198.413 53.2042 196.876 55.8516 195.253C54.3998 188.507 51.1546 181.589 45.0912 178.173C43.127 177.063 40.8212 176.38 38.6862 177.234C37.6614 177.576 36.8928 178.173 36.295 178.942Z" fill="black"/>
<path d="M28.8652 174.245C29.3776 172.452 29.89 170.658 30.0608 168.694C30.2316 166.474 30.2316 164.253 31.0856 162.118C32.3666 158.958 36.8074 156.823 40.0526 157.677C44.6642 158.788 43.2978 166.474 42.8708 169.975C42.7 171.683 41.419 172.879 40.4796 174.245C39.0278 176.551 38.7716 180.394 38.6008 183.127C38.6008 183.468 38.5154 183.81 38.3446 183.981C38.0884 184.237 37.7468 184.322 37.4052 184.408C35.5264 184.835 33.6476 185.262 31.7688 185.176C29.2922 185.176 25.3638 184.237 26.474 181.077C27.2426 178.686 28.0966 176.465 28.8652 174.245Z" fill="white"/>
<path d="M31.8542 185.689C31.7688 185.689 31.6834 185.689 31.598 185.689C30.6586 185.689 27.328 185.432 26.047 183.639C25.5346 182.87 25.4492 181.846 25.7908 180.821C26.047 180.052 26.3886 179.198 26.6448 178.43C27.2426 176.892 27.755 175.526 28.182 174.074C28.7798 172.11 29.1214 170.317 29.2922 168.609C29.2922 168.182 29.3776 167.669 29.3776 167.242C29.5484 165.449 29.6338 163.655 30.317 161.862C31.598 158.531 36.295 156.14 39.9672 157.08C44.7496 158.19 43.8102 165.363 43.2978 169.206L43.2124 169.975C43.0416 171.341 42.273 172.366 41.5044 173.391C41.2482 173.733 40.992 174.074 40.7358 174.416C39.4548 176.465 39.1132 179.881 38.9424 182.443L38.857 183.041C38.857 183.383 38.7716 183.81 38.5154 184.237C38.1738 184.664 37.576 184.835 37.2344 184.92C35.6118 185.347 33.733 185.689 31.8542 185.689ZM29.3776 174.416C28.9506 175.953 28.3528 177.319 27.755 178.857C27.4988 179.625 27.1572 180.394 26.901 181.162C26.6448 181.931 26.6448 182.529 26.9864 182.956C27.755 184.066 29.9754 184.493 31.598 184.493C33.4768 184.493 35.2702 184.151 37.0636 183.724C37.2344 183.639 37.576 183.639 37.6614 183.468C37.7468 183.383 37.7468 183.127 37.8322 182.87L37.9176 182.273C38.1738 179.454 38.43 176.038 39.8818 173.733C40.138 173.391 40.3942 172.964 40.6504 172.622C41.3336 171.683 42.0168 170.829 42.1022 169.719L42.1876 168.95C42.6146 165.449 43.4686 159.044 39.711 158.104C36.6366 157.336 32.5374 159.385 31.4272 162.204C30.8294 163.741 30.6586 165.449 30.5732 167.242C30.5732 167.669 30.4878 168.182 30.4878 168.609C30.4024 170.573 30.0608 172.366 29.3776 174.416Z" fill="black"/>
<path d="M41.5044 151.956C40.138 151.87 38.6862 152.297 37.6614 153.237C37.2344 153.664 36.8074 154.091 36.295 154.347C36.0388 154.432 35.6972 154.518 35.441 154.518C32.7082 154.945 30.317 156.653 28.8652 158.958C28.5236 159.471 28.2674 160.069 28.182 160.666C28.0966 161.179 28.182 161.606 28.2674 162.118C28.4382 163.228 28.609 164.339 28.8652 165.449C28.9506 165.961 29.2068 166.474 29.2068 166.901C29.2068 167.328 29.1214 167.669 29.2922 168.096C29.8046 169.804 31.4272 169.036 32.1104 167.925C32.6228 167.071 32.9644 166.047 33.3914 165.022C33.9038 163.741 34.5016 162.545 35.5264 161.691C36.5512 160.923 37.8322 160.666 39.1132 160.496C40.4796 160.239 42.3584 160.069 43.3832 159.044C44.4934 157.934 45.3474 156.396 45.1766 154.774C45.1766 154.347 45.0912 154.005 44.835 153.664C44.5788 153.237 44.2372 152.98 43.8956 152.724C43.127 152.297 42.273 152.041 41.5044 151.956Z" fill="black"/>
<path d="M34.8432 164.595C34.3308 163.57 33.1352 163.228 32.1958 163.741C31.0856 164.339 30.4024 165.961 30.6586 167.157C30.8294 168.267 31.9396 169.036 32.9644 168.352C33.3914 168.267 33.8184 168.011 34.16 167.669C34.8432 166.815 35.3556 165.62 34.8432 164.595Z" fill="white"/>
<path d="M32.9644 165.79C32.879 165.278 32.025 165.449 32.1104 166.047C32.1958 166.474 32.1958 166.901 32.452 167.242C32.6228 167.413 32.9644 167.328 33.0498 167.071C33.2206 166.644 33.0498 166.217 32.9644 165.79Z" fill="black"/>
<path d="M32.7082 227.022C32.5374 227.364 32.5374 227.705 32.6228 228.047C32.7936 228.645 33.306 229.072 33.8184 229.243C33.9038 229.328 34.0746 229.328 34.2454 229.328C34.587 229.328 34.8432 229.157 35.1848 228.986" fill="black"/>
<path d="M17.08 197.73C16.9092 198.669 16.8238 199.609 16.9092 200.634C17.08 204.562 18.0194 208.405 18.8734 212.248C21.0084 210.198 23.9974 209.259 26.901 208.32C29.89 207.38 32.9644 206.441 35.9534 205.501C36.8074 205.245 37.8322 204.818 38.003 203.964C38.0884 203.708 38.0884 203.366 38.003 203.025C37.4052 197.388 33.2206 186.97 25.9616 188.251C23.7412 188.678 21.8624 190.129 20.3252 191.752C18.6172 193.716 17.507 195.51 17.08 197.73Z" fill="black"/>
<path d="M31.6834 190.044C31.5126 189.873 31.3418 190.215 31.4272 190.386C33.1352 192.264 34.587 194.143 35.6972 196.364C36.8928 198.84 37.4906 201.573 38.5154 204.135C38.6008 204.306 38.857 204.306 38.857 204.05C37.9176 199.096 35.7826 193.118 31.6834 190.044Z" fill="white"/>
<path d="M36.8074 172.025C36.8928 172.195 37.0636 172.537 37.149 172.708C37.3198 173.135 37.4906 173.476 37.6614 173.903C38.2592 175.526 38.9424 177.234 38.857 179.027C38.857 177.746 39.5402 176.807 39.9672 175.697C40.3942 174.587 41.0774 173.562 41.7606 172.537C42.0168 172.11 42.273 171.171 41.5044 171.768C41.0774 172.11 40.565 172.281 40.0526 172.366C38.9424 172.537 37.8322 172.281 36.8074 172.025C36.722 171.854 36.722 171.939 36.8074 172.025Z" fill="black"/>
<path d="M38.6008 167.242C38.5154 167.413 38.6008 167.584 38.6862 167.755C38.857 168.096 39.1132 168.352 39.4548 168.523C39.7964 168.694 40.138 168.779 40.565 168.609C40.992 168.438 41.3336 168.011 41.5044 167.584C41.5044 167.498 41.5898 167.328 41.5044 167.328" fill="black"/>
<path d="M352.617 181.248C352.873 181.248 353.129 181.333 353.3 181.589C353.471 181.846 353.385 182.102 353.3 182.358C353.214 182.529 352.958 182.614 352.787 182.7H352.702" fill="black"/>
<path d="M341.856 182.87C341.771 183.041 341.942 183.297 342.027 183.468C342.198 183.724 342.454 183.981 342.796 184.151C343.223 184.322 343.65 184.322 343.991 184.151C344.418 183.981 344.674 183.639 344.845 183.297H344.76" fill="black"/>
</svg>
