<svg width="9" height="34" viewBox="0 0 9 34" fill="none" xmlns="http://www.w3.org/2000/svg">
<path d="M4.912 14.472V4.752C4.912 2.88 5.776 1.836 7.648 1.836H8.692V0.287998H7.54C4.624 0.287998 3.112 1.692 3.112 4.608V14.508C3.112 15.804 2.5 16.344 1.492 16.344H0.232V17.892H1.492C2.5 17.892 3.112 18.468 3.112 19.764V29.664C3.112 32.58 4.624 33.984 7.54 33.984H8.692V32.436H7.648C5.776 32.436 4.912 31.392 4.912 29.52V19.8C4.912 18.18 4.408 17.496 3.436 17.136C4.408 16.776 4.912 16.092 4.912 14.472Z" fill="#17C6FE"/>
</svg>
