<svg width="9" height="34" viewBox="0 0 9 34" fill="none" xmlns="http://www.w3.org/2000/svg">
<path d="M4.088 19.528L4.088 29.248C4.088 31.12 3.224 32.164 1.352 32.164L0.308 32.164L0.308 33.712L1.46 33.712C4.376 33.712 5.888 32.308 5.888 29.392L5.888 19.492C5.888 18.196 6.5 17.656 7.508 17.656L8.768 17.656L8.768 16.108L7.508 16.108C6.5 16.108 5.888 15.532 5.888 14.236L5.888 4.336C5.888 1.42 4.376 0.0159992 1.46 0.015999L0.308003 0.0159989L0.308003 1.564L1.352 1.564C3.224 1.564 4.088 2.608 4.088 4.48L4.088 14.2C4.088 15.82 4.592 16.504 5.564 16.864C4.592 17.224 4.088 17.908 4.088 19.528Z" fill="#17C6FE"/>
</svg>
