<svg width="202" height="324" viewBox="0 0 202 324" fill="none" xmlns="http://www.w3.org/2000/svg">
<path d="M144.329 61.9648C144.329 61.9041 144.329 61.8433 144.329 61.7623C144.329 61.5396 144.167 61.3371 143.965 61.2763H143.945C144.066 61.4383 144.188 61.6003 144.309 61.7623C144.208 60.9321 144.026 60.1018 143.723 59.3323C143.501 58.7653 143.198 57.8541 142.511 57.6718C141.824 57.4896 141.057 58.0363 140.552 58.4413C140.006 58.8666 139.562 59.4133 139.158 59.9803C138.269 61.3168 137.804 62.8963 137.097 64.3341C136.35 65.8528 135.118 67.0273 134.512 68.6271C133.886 70.2673 133.825 72.0898 134.31 73.7706C134.391 74.0541 134.774 74.2768 135.057 74.0743C135.158 74.0136 135.239 73.9326 135.34 73.8718C135.077 73.7301 134.835 73.5883 134.572 73.4263C134.572 73.8718 134.532 74.4793 134.714 74.8843C134.795 75.0666 134.976 75.1678 135.118 75.2893C135.461 75.5526 135.805 75.7956 136.128 76.0588C136.35 76.2208 136.693 76.0791 136.815 75.8766C138.168 73.6896 140.511 72.4543 142.168 70.5306C143.077 69.4776 143.683 68.2828 143.965 66.9261C144.329 65.3263 144.47 63.5646 144.329 61.9648C144.268 61.3168 143.258 61.3168 143.319 61.9648C143.46 63.5038 143.339 65.2048 142.996 66.7236C142.693 68.0803 142.046 69.2143 141.077 70.2066C139.4 71.9481 137.259 73.2238 135.946 75.3298C136.168 75.2691 136.411 75.2083 136.633 75.1476C136.229 74.8438 135.825 74.5401 135.401 74.2161C135.481 74.3173 135.562 74.4186 135.623 74.5198C135.562 74.1553 135.542 73.7706 135.542 73.4061C135.542 73.0618 135.098 72.7378 134.774 72.9606C134.673 73.0213 134.593 73.1023 134.492 73.1631C134.734 73.2643 134.976 73.3656 135.239 73.4668C134.774 71.8468 134.875 70.0851 135.582 68.5258C135.946 67.7158 136.512 67.0273 137.037 66.2983C137.582 65.5491 137.986 64.7391 138.35 63.9088C138.996 62.4103 139.542 60.7701 140.733 59.5753C140.976 59.3323 141.259 59.1096 141.562 58.9273C141.683 58.8463 142.006 58.6236 142.147 58.6641C142.329 58.6843 142.39 58.8868 142.471 59.0488C142.895 59.8993 143.157 60.8308 143.279 61.7623C143.299 61.9851 143.42 62.1876 143.642 62.2483H143.662C143.541 62.0863 143.42 61.9243 143.299 61.7623C143.299 61.8231 143.299 61.8838 143.299 61.9648C143.339 62.6128 144.349 62.6128 144.329 61.9648Z" fill="black"/>
<path d="M45.8742 306.99C43.4906 310.25 43.834 315.596 44.642 315.596C45.4702 315.596 66.8822 316.953 66.8822 315.07C66.8822 312.275 51.3282 307.658 51.3282 307.658" fill="black"/>
<path d="M49.6718 310.007C46.9852 310.007 45.753 308.489 45.7126 308.428L45.6116 308.306L43.733 281.394L44.743 281.333L46.6014 307.922C46.8842 308.205 47.8538 309.015 49.6718 309.015C51.5302 309.015 52.1564 308.043 52.2776 307.82L55.2672 284.512L56.2772 284.634L53.2674 308.084L53.2472 308.144C53.2068 308.205 52.4796 310.007 49.6718 310.007Z" fill="black"/>
<path d="M69.0436 143.836C69.0436 143.836 72.3564 170.748 69.1042 224.937C67.5084 251.586 54.035 302.272 54.035 302.272H45.3288C45.3288 302.272 39.8344 259.504 39.8344 248.022C39.8344 236.54 41.3898 225.848 41.3898 225.848C38.5416 208.028 35.0066 185.308 35.0066 185.308C35.0066 185.308 24.2602 163.377 42.218 143.005" fill="black"/>
<path d="M53.328 302.332L52.5806 302.191C52.6816 301.684 62.721 251.221 64.2966 224.917C67.5084 171.396 64.2764 144.16 64.236 143.896L65.0036 143.795C65.044 144.058 68.2962 171.355 65.0642 224.957C63.4684 251.302 53.429 301.826 53.328 302.332Z" fill="black"/>
<path d="M89.5062 310.007C86.8196 310.007 85.5874 308.489 85.547 308.428L85.446 308.306L83.5674 281.394L84.5774 281.333L86.4358 307.922C86.7186 308.205 87.6882 309.015 89.5062 309.015C91.3646 309.015 91.9908 308.043 92.112 307.82L95.1016 284.512L96.1116 284.634L93.1018 308.084L93.0816 308.144C93.0412 308.205 92.2938 310.007 89.5062 310.007Z" fill="black"/>
<path d="M85.3046 306.585C82.8806 309.845 83.224 315.191 84.0522 315.191C84.8804 315.191 106.737 316.548 106.737 314.665C106.737 311.87 90.8798 307.253 90.8798 307.253" fill="#00C2FF"/>
<path d="M95.8894 143.836C95.8894 143.836 103.02 173.502 101.424 229.838C100.677 256.527 93.8492 302.272 93.8492 302.272H85.143C85.143 302.272 75.4066 255.677 75.4066 244.195C75.4066 232.713 56.9842 185.308 56.9842 185.308C56.9842 185.308 39.5112 173.522 51.7322 139.583" fill="#00C2FF"/>
<path d="M92.2534 302.312L91.4858 302.211C91.5464 301.684 97.9902 249.682 97.4044 213.313C97.061 192.152 91.405 156.208 91.3444 155.864L92.0918 155.743C92.1524 156.107 97.8286 192.091 98.1518 213.313C98.7578 249.723 92.314 301.786 92.2534 302.312Z" fill="black"/>
<path d="M68.1346 218.497C63.0644 203.107 57.1256 186.705 56.661 185.49C53.1058 183.667 44.7834 172.51 46.5812 156.472L47.3488 156.553C47.2478 176.276 53.7724 181.42 57.267 185.004L57.3478 185.125C57.4084 185.287 63.6098 202.318 68.8618 218.254L68.1346 218.497Z" fill="black"/>
<path d="M66.5994 158.861C56.8024 158.861 45.8136 157.545 35.3702 153.414L35.653 152.705C64.3774 164.066 97.3438 154.001 97.667 153.9L97.8892 154.629C97.6872 154.69 84.0118 158.861 66.5994 158.861Z" fill="black"/>
<path d="M79.588 157.727C79.588 157.687 79.5678 153.941 78.7194 151.976L79.4264 151.673C80.3556 153.779 80.3556 157.565 80.3556 157.727H79.588Z" fill="black"/>
<path d="M52.5806 157.606C52.5806 157.484 52.4594 154.507 53.3078 151.733L54.035 151.956C53.227 154.609 53.328 157.545 53.328 157.565L52.5806 157.606Z" fill="black"/>
<path d="M84.8602 302.798H94.2128L94.7784 298.971H84.3754L84.8602 302.798Z" fill="black"/>
<path d="M45.1268 302.798H54.641L55.2066 298.971H44.642L45.1268 302.798Z" fill="black"/>
<path d="M63.5896 62.4307C60.6808 62.4307 56.4994 62.0257 55.5298 60.4462L55.449 60.3044L57.0852 45.3397C57.3276 43.8412 59.5698 30.7192 62.9028 28.6942C66.4378 26.5477 73.6694 26.4464 76.5378 31.1647L76.5782 31.2254L76.5984 31.3064C76.5984 31.3469 77.3862 34.6072 77.9518 38.5357C78.982 39.8519 79.891 41.2897 80.6182 42.7882C80.7798 43.1122 80.9212 43.4564 80.9616 43.8412C81.0222 44.3474 80.8404 44.8334 80.497 45.1372C80.295 45.2992 80.0728 45.4004 79.8506 45.4612C79.4264 45.5827 78.982 45.6839 78.5174 45.7244C78.4972 49.5922 77.7094 51.8804 76.1338 52.7107C74.1744 53.7637 72.518 53.5207 71.5686 53.1764L72.4776 59.8387L72.3968 59.9804C71.3262 62.0459 66.0944 62.3699 64.5188 62.4307C64.2562 62.4307 63.933 62.4307 63.5896 62.4307ZM56.4994 60.0412C57.2266 60.8309 60.3576 61.5397 64.4986 61.4182C68.0134 61.2967 70.7606 60.5879 71.4474 59.6362L70.296 51.2324L71.2454 51.9007C71.3262 51.9614 73.1442 53.1764 75.6692 51.7994C76.9014 51.1312 77.5478 48.8632 77.5074 45.2384V44.7524L77.9922 44.7322C78.5376 44.7119 79.0628 44.6107 79.5678 44.4689C79.6688 44.4284 79.79 44.3879 79.8708 44.3474C79.9516 44.2664 79.992 44.1044 79.9718 43.9424C79.9516 43.7197 79.8304 43.4767 79.7092 43.2337C78.982 41.7554 78.0932 40.3582 77.063 39.0622L76.9822 38.9609L76.962 38.8192C76.457 35.2147 75.75 32.1569 75.6288 31.6304C72.9826 27.3577 66.2358 27.8639 63.428 29.5649C60.9636 31.0634 58.7416 41.5529 58.0952 45.4814L56.4994 60.0412Z" fill="black"/>
<path d="M67.266 24.4821C67.8518 24.4416 68.4376 24.4416 69.0234 24.5023C70.5788 24.6441 72.0736 25.1706 73.5078 25.7781C74.437 26.1831 75.3864 26.6286 76.154 27.2766C76.9418 27.9246 77.5478 28.8358 77.7094 29.8281C77.8104 30.5166 77.6892 31.2253 77.467 31.8936C77.2448 32.5213 76.8812 33.1491 76.255 33.3718C75.8308 33.5338 75.346 33.4528 74.8814 33.3921C73.73 33.2301 72.4978 33.1896 71.407 33.6553C70.5182 34.0401 69.3668 34.2628 68.9628 35.2551C68.377 36.7333 69.9728 38.3736 69.5486 39.8923C69.387 40.5201 68.9022 41.0061 68.3972 41.3908C68.2962 41.4718 68.175 41.5528 68.0336 41.5528C67.8922 41.5528 67.771 41.4313 67.67 41.3301C67.0034 40.6821 66.6398 39.5278 65.549 39.8113C64.1754 40.1758 63.8522 42.2818 64.0138 43.4361C64.1148 44.1246 64.4178 44.9548 64.9228 45.4611C65.4076 45.9673 66.2358 45.6636 66.66 46.1091C66.8418 46.2913 66.8418 46.5951 66.8216 46.8381C66.7408 47.6278 66.559 48.3973 66.2358 49.1061C65.8924 49.8958 65.3874 50.6451 64.64 51.0703C63.5088 51.7183 62.115 51.4956 60.8626 51.1513C59.5092 50.7868 58.1558 50.3008 57.0448 49.4503C55.3278 48.1341 54.338 46.0686 53.7118 44.0031C52.7624 40.8643 52.4998 37.5231 52.9644 34.2628C53.2068 32.5213 53.833 31.0431 55.0652 29.7876C56.0146 28.8156 57.1054 27.9651 58.277 27.2563C59.388 26.5881 60.2566 25.7376 61.5494 25.3326C62.5796 25.0086 63.63 24.8466 64.7006 24.7048C65.549 24.6643 66.4176 24.5428 67.266 24.4821Z" fill="black"/>
<path d="M74.437 48.519C73.6694 48.519 72.7604 48.3367 71.7302 48.0127L71.2454 47.8507L71.7302 46.413L72.215 46.575C73.9118 47.142 75.1642 47.1622 75.7096 46.6155L76.0732 46.251L77.1438 47.3242L76.7802 47.6887C76.2146 48.2355 75.4268 48.519 74.437 48.519Z" fill="black"/>
<path d="M188.91 39.9125H89.688L96.2328 35.5588V21.5053C96.2328 18.2248 98.879 15.572 102.151 15.572H188.91C192.183 15.572 194.829 18.2248 194.829 21.5053V33.9995C194.829 37.2598 192.183 39.9125 188.91 39.9125Z" fill="white"/>
<path d="M188.91 40.4189H87.9912L95.7278 35.2754V21.4852C95.7278 17.9414 98.6164 15.0457 102.151 15.0457H188.91C192.445 15.0457 195.334 17.9414 195.334 21.4852V33.9794C195.334 37.5434 192.445 40.4189 188.91 40.4189ZM91.3646 39.4064H188.91C191.88 39.4064 194.304 36.9764 194.304 33.9997V21.5054C194.304 18.5287 191.88 16.0987 188.91 16.0987H102.151C99.182 16.0987 96.758 18.5287 96.758 21.5054V35.8424L91.3646 39.4064Z" fill="black"/>
<path d="M113.1 22.7608L114.251 25.7578L117.463 25.9198C118.109 25.9603 118.372 26.7501 117.867 27.1551L115.382 29.1801L116.211 32.2783C116.372 32.9061 115.685 33.3921 115.16 33.0478L112.474 31.2861L109.787 33.0478C109.242 33.3921 108.575 32.9061 108.737 32.2783L109.565 29.1801L107.08 27.1551C106.575 26.7501 106.838 25.9401 107.484 25.9198L110.696 25.7578L111.847 22.7608C112.029 22.1533 112.878 22.1533 113.1 22.7608Z" fill="#00C2FF"/>
<path d="M129.644 22.7608L130.795 25.7578L134.007 25.9198C134.653 25.9603 134.916 26.7501 134.411 27.1551L131.926 29.1801L132.754 32.2783C132.916 32.9061 132.229 33.3921 131.704 33.0478L129.017 31.2861L126.331 33.0478C125.785 33.3921 125.119 32.9061 125.28 32.2783L126.109 29.1801L123.624 27.1551C123.119 26.7501 123.382 25.9401 124.028 25.9198L127.24 25.7578L128.391 22.7608C128.573 22.1533 129.421 22.1533 129.644 22.7608Z" fill="#00C2FF"/>
<path d="M146.187 22.7608L147.339 25.7578L150.551 25.9198C151.197 25.9603 151.46 26.7501 150.955 27.1551L148.47 29.1801L149.298 32.2783C149.46 32.9061 148.773 33.3921 148.248 33.0478L145.561 31.2861L142.875 33.0478C142.329 33.3921 141.663 32.9061 141.824 32.2783L142.652 29.1801L140.168 27.1551C139.663 26.7501 139.925 25.9401 140.572 25.9198L143.784 25.7578L144.935 22.7608C145.117 22.1533 145.945 22.1533 146.187 22.7608Z" fill="#00C2FF"/>
<path d="M162.711 22.7608L163.862 25.7578L167.074 25.9198C167.721 25.9603 167.983 26.7501 167.478 27.1551L164.994 29.1801L165.822 32.2783C165.983 32.9061 165.297 33.3921 164.771 33.0478L162.085 31.2861L159.398 33.0478C158.853 33.3921 158.186 32.9061 158.348 32.2783L159.176 29.1801L156.691 27.1551C156.186 26.7501 156.449 25.9401 157.095 25.9198L160.307 25.7578L161.459 22.7608C161.64 22.1533 162.489 22.1533 162.711 22.7608Z" fill="#00C2FF"/>
<path d="M178.608 23.9149L179.457 26.1424L179.699 26.7702L180.366 26.8107L182.729 26.9322L180.891 28.4307L180.366 28.8559L180.548 29.5039L181.154 31.7922L179.174 30.4962L178.608 30.1317L178.043 30.4962L176.063 31.7922L176.669 29.5039L176.851 28.8559L176.326 28.4307L174.488 26.9322L176.851 26.8107L177.518 26.7702L177.76 26.1424L178.608 23.9149ZM178.608 22.3152C178.346 22.3152 178.063 22.4569 177.962 22.7607L176.811 25.7577L173.599 25.9197C172.952 25.9602 172.69 26.7499 173.195 27.1549L175.679 29.1799L174.851 32.2782C174.73 32.7642 175.094 33.1692 175.518 33.1692C175.639 33.1692 175.78 33.1287 175.902 33.0477L178.588 31.2859L181.275 33.0477C181.396 33.1287 181.537 33.1692 181.659 33.1692C182.083 33.1692 182.467 32.7642 182.325 32.2782L181.497 29.1799L183.982 27.1549C184.487 26.7499 184.224 25.9399 183.578 25.9197L180.366 25.7577L179.214 22.7607C179.134 22.4569 178.871 22.3152 178.608 22.3152Z" fill="#00C2FF"/>
<path d="M135.037 68.1411L140.41 68.9309C140.915 69.0119 141.481 68.6676 141.663 68.1816L146.046 57.4896C146.248 57.0036 146.006 56.5581 145.501 56.4771L140.127 55.6874C139.622 55.6064 139.057 55.9506 138.875 56.4366L134.492 67.1286C134.29 67.6146 134.532 68.0601 135.037 68.1411Z" fill="#00C2FF"/>
<path d="M133.825 72.8189C133.825 72.8189 123.058 82.9844 114.494 94.8306C109.585 87.2976 106.434 79.1774 98.3942 71.0976C83.123 55.8089 62.2564 59.7374 62.2564 59.7374L62.5998 60.5069C60.499 60.3044 58.2972 60.1829 55.9742 60.1829C25.6944 59.2919 7.87799 106.758 7.87799 119.05C7.87799 141.628 36.663 160.198 36.663 160.198L38.5012 155.479L24.846 125.712C24.846 125.712 29.3708 120.548 34.7036 113.845C37.3296 141.082 35.4914 146.286 37.1478 149.911C38.6426 153.171 51.8332 155.479 62.5998 155.479C73.3866 155.479 99.9698 154.953 97.869 149.769C96.5762 146.59 95.445 138.186 96.4146 116.397C99.5658 119.515 102.697 122.168 105.545 123.707C122.877 133.103 138.249 75.8159 138.249 75.8159L133.825 72.8189Z" fill="white"/>
<path d="M36.9054 160.947L36.3802 160.603C36.2994 160.562 29.0476 155.844 21.8968 148.432C17.6952 144.058 14.3218 139.624 11.918 135.25C8.88798 129.742 7.35278 124.294 7.35278 119.05C7.35278 114.352 9.79698 105.583 13.4532 97.1998C16.7256 89.6871 22.4018 79.0153 30.8454 70.7736C38.683 63.1393 47.1468 59.4133 55.9742 59.6766C57.9336 59.6766 59.8728 59.7576 61.7514 59.9196L61.4888 59.3526L62.115 59.2311C62.3372 59.1906 67.4882 58.2388 74.6188 59.1703C81.204 60.0208 90.7182 62.7343 98.6972 70.7331C104.394 76.4436 107.626 82.1338 110.757 87.6621C111.989 89.8288 113.16 91.8943 114.453 93.9396C122.897 82.4578 133.32 72.5556 133.421 72.4543L133.724 72.1708L138.774 75.5728L138.673 75.9171C138.653 76.0183 135.784 86.6091 131.239 97.7871C125.099 112.894 118.938 121.864 112.938 124.456C110.312 125.59 107.727 125.469 105.242 124.132C102.818 122.816 99.99 120.609 96.8186 117.531C95.9298 138.773 97.1216 146.671 98.2932 149.546C98.5558 150.174 98.4952 150.802 98.1114 151.369C96.859 153.232 91.8696 154.507 82.8402 155.236C75.3864 155.864 66.9226 155.945 62.5594 155.945C52.823 155.945 38.4002 153.9 36.6428 150.073C35.8348 148.311 35.8146 146.306 35.754 141.912C35.6934 137.052 35.5722 129.033 34.2794 115.081C29.9768 120.447 26.3206 124.699 25.4116 125.752L39.0264 155.419L36.9054 160.947ZM55.146 60.6688C46.8842 60.6688 38.9658 64.3138 31.5726 71.5026C17.1902 85.4953 8.38298 110.241 8.38298 119.05C8.38298 130.552 16.1398 141.001 22.6442 147.744C28.6234 153.94 34.6632 158.233 36.4408 159.428L37.9558 155.5L24.24 125.611L24.4622 125.368C24.5026 125.307 29.0476 120.143 34.2996 113.521L35.0874 112.549L35.2086 113.805C36.6226 128.567 36.7438 136.951 36.8044 141.952C36.865 146.205 36.8852 148.149 37.6124 149.708C38.8446 152.422 51.005 154.993 62.62 154.993C82.618 154.993 95.5864 153.454 97.3438 150.842C97.5256 150.559 97.566 150.295 97.4246 149.971C95.6268 145.577 95.142 134.278 95.9298 116.397L95.9904 115.263L96.7984 116.073C100.232 119.475 103.262 121.905 105.808 123.282C108.05 124.497 110.272 124.578 112.635 123.565C125.725 117.916 136.572 80.0886 137.703 76.0386L133.926 73.4871C132.148 75.2083 122.614 84.5638 114.938 95.1343L114.514 95.7216L114.11 95.1141C112.635 92.8461 111.342 90.5781 109.969 88.1683C106.858 82.7008 103.646 77.0713 98.071 71.4621C90.3142 63.6861 81.0222 61.0333 74.6188 60.2031C69.0638 59.4741 64.64 59.9196 63.0442 60.1423L63.4684 61.0941L62.5998 61.0131C60.4788 60.8106 58.277 60.6891 56.0146 60.6891C55.6914 60.6891 55.4086 60.6688 55.146 60.6688Z" fill="black"/>
<path d="M96.1722 116.883L81.6888 102.384L82.214 101.432L96.6974 115.931L96.1722 116.883Z" fill="black"/>
<path d="M34.3198 113.845C34.3198 113.643 33.633 94.223 29.593 90.1932L30.3404 89.6465C34.5824 93.899 35.249 113.015 35.2894 113.825L34.3198 113.845Z" fill="black"/>
</svg>
